<svg id="Layer_1" data-name="Layer 1" xmlns="http://www.w3.org/2000/svg" viewBox="0 0 1739 740.99"><defs><style>.cls-1{fill:#1a1c29;}.cls-2{fill:#f49ac1;}.cls-3{fill:#fff;}.cls-4{fill:#fcaf17;}.cls-5{fill:#b48b2a;}.cls-6{fill:#fefefe;}.cls-7{fill:#00acd6;}.cls-8{fill:#03499a;}.cls-9{fill:#f15d22;}.cls-10{fill:#fbfafc;}.cls-11{fill:none;stroke:#010101;stroke-miterlimit:10;stroke-width:1px;}.cls-12{fill:#fff9f4;}</style></defs><rect class="cls-1" y="0.3" width="1742.77" height="740.69" transform="translate(1742.77 741.28) rotate(-180)"/><path class="cls-2" d="M1429.12,590.46a59.36,59.36,0,1,1,59.36,59.36A59.43,59.43,0,0,1,1429.12,590.46Zm3.94,0A55.43,55.43,0,1,0,1488.48,535,55.49,55.49,0,0,0,1433.06,590.46Z"/><path class="cls-2" d="M1444.74,606.08a43.74,43.74,0,1,1,43.74,43.74A43.79,43.79,0,0,1,1444.74,606.08Zm3.93,0a39.81,39.81,0,1,0,39.81-39.81A39.86,39.86,0,0,0,1448.67,606.08Z"/><path class="cls-2" d="M1459.06,620.4a29.43,29.43,0,1,1,29.42,29.42A29.46,29.46,0,0,1,1459.06,620.4Zm3.93,0a25.49,25.49,0,1,0,25.49-25.49A25.53,25.53,0,0,0,1463,620.4Z"/><path class="cls-2" d="M1472.78,634.13a15.7,15.7,0,1,1,15.7,15.69A15.72,15.72,0,0,1,1472.78,634.13Zm3.94,0a11.76,11.76,0,1,0,11.76-11.77A11.78,11.78,0,0,0,1476.72,634.13Z"/><path class="cls-3" d="M1459.7,368.91A10.25,10.25,0,1,1,1470,379.17,10.27,10.27,0,0,1,1459.7,368.91Zm2.6,0a7.65,7.65,0,1,0,7.65-7.65A7.66,7.66,0,0,0,1462.3,368.91Z"/><path class="cls-3" d="M1418.93,368.91a10.25,10.25,0,1,1,10.25,10.26A10.27,10.27,0,0,1,1418.93,368.91Zm2.6,0a7.65,7.65,0,1,0,7.65-7.65A7.66,7.66,0,0,0,1421.53,368.91Z"/><path class="cls-3" d="M1378.16,368.91a10.25,10.25,0,1,1,10.25,10.26A10.27,10.27,0,0,1,1378.16,368.91Zm2.6,0a7.65,7.65,0,1,0,7.65-7.65A7.66,7.66,0,0,0,1380.76,368.91Z"/><path class="cls-3" d="M1337.38,368.91a10.26,10.26,0,1,1,10.26,10.26A10.27,10.27,0,0,1,1337.38,368.91Zm2.61,0a7.65,7.65,0,1,0,7.65-7.65A7.66,7.66,0,0,0,1340,368.91Z"/><path class="cls-3" d="M1460.19,409.2a10.26,10.26,0,1,1,10.26,10.26A10.27,10.27,0,0,1,1460.19,409.2Zm2.61,0a7.65,7.65,0,1,0,7.65-7.65A7.66,7.66,0,0,0,1462.8,409.2Z"/><path class="cls-3" d="M1419.42,409.2a10.26,10.26,0,1,1,10.26,10.26A10.27,10.27,0,0,1,1419.42,409.2Zm2.61,0a7.65,7.65,0,1,0,7.65-7.65A7.66,7.66,0,0,0,1422,409.2Z"/><path class="cls-3" d="M1378.65,409.2a10.26,10.26,0,1,1,10.26,10.26A10.27,10.27,0,0,1,1378.65,409.2Zm2.61,0a7.65,7.65,0,1,0,7.65-7.65A7.66,7.66,0,0,0,1381.26,409.2Z"/><path class="cls-3" d="M1337.88,409.2a10.26,10.26,0,1,1,10.26,10.26A10.27,10.27,0,0,1,1337.88,409.2Zm2.61,0a7.65,7.65,0,1,0,7.65-7.65A7.66,7.66,0,0,0,1340.49,409.2Z"/><path class="cls-3" d="M1460.69,449.49A10.26,10.26,0,1,1,1471,459.75,10.27,10.27,0,0,1,1460.69,449.49Zm2.61,0a7.65,7.65,0,1,0,7.65-7.65A7.66,7.66,0,0,0,1463.3,449.49Z"/><path class="cls-3" d="M1419.92,449.49a10.26,10.26,0,1,1,10.25,10.26A10.27,10.27,0,0,1,1419.92,449.49Zm2.61,0a7.65,7.65,0,1,0,7.64-7.65A7.65,7.65,0,0,0,1422.53,449.49Z"/><path class="cls-3" d="M1379.15,449.49a10.26,10.26,0,1,1,10.25,10.26A10.27,10.27,0,0,1,1379.15,449.49Zm2.61,0a7.65,7.65,0,1,0,7.64-7.65A7.65,7.65,0,0,0,1381.76,449.49Z"/><path class="cls-3" d="M1338.38,449.49a10.26,10.26,0,1,1,10.25,10.26A10.27,10.27,0,0,1,1338.38,449.49Zm2.61,0a7.65,7.65,0,1,0,7.64-7.65A7.65,7.65,0,0,0,1341,449.49Z"/><path class="cls-3" d="M1461.19,489.78A10.26,10.26,0,1,1,1471.44,500,10.26,10.26,0,0,1,1461.19,489.78Zm2.61,0a7.65,7.65,0,1,0,7.64-7.65A7.65,7.65,0,0,0,1463.8,489.78Z"/><path class="cls-3" d="M1420.42,489.78A10.26,10.26,0,1,1,1430.67,500,10.26,10.26,0,0,1,1420.42,489.78Zm2.61,0a7.65,7.65,0,1,0,7.64-7.65A7.65,7.65,0,0,0,1423,489.78Z"/><path class="cls-3" d="M1379.65,489.78A10.25,10.25,0,1,1,1389.9,500,10.26,10.26,0,0,1,1379.65,489.78Zm2.6,0a7.65,7.65,0,1,0,7.65-7.65A7.66,7.66,0,0,0,1382.25,489.78Z"/><path class="cls-3" d="M1338.88,489.78A10.25,10.25,0,1,1,1349.13,500,10.26,10.26,0,0,1,1338.88,489.78Zm2.6,0a7.65,7.65,0,1,0,7.65-7.65A7.66,7.66,0,0,0,1341.48,489.78Z"/><rect class="cls-3" x="1273.01" y="548.34" width="117.02" height="2.75" transform="translate(2663.04 1099.43) rotate(-180)"/><path class="cls-3" d="M1336.05,549.52a27,27,0,0,1,46.56,0Z"/><rect class="cls-3" x="1273.01" y="574.17" width="117.02" height="2.75" transform="translate(2663.04 1151.1) rotate(-180)"/><path class="cls-3" d="M1285.53,575.36a27,27,0,0,1,46.57,0Z"/><rect class="cls-3" x="1271.6" y="603.32" width="117.02" height="2.75" transform="translate(2660.23 1209.4) rotate(-180)"/><path class="cls-3" d="M1334.64,604.51a27,27,0,0,1,46.57,0Z"/><rect class="cls-3" x="1271.6" y="629.16" width="117.02" height="2.75" transform="translate(2660.23 1261.08) rotate(-180)"/><path class="cls-3" d="M1284.13,630.35a27,27,0,0,1,46.56,0Z"/><path class="cls-4" d="M1323.94,153.65h-69.46a34.53,34.53,0,0,1-3.67-.06c-3.35-.35-5.39-2.77-5.36-6.24a5.77,5.77,0,0,1,5.47-6.15,31.22,31.22,0,0,1,3.21,0H1394c.92,0,1.84,0,2.76,0,3.76.24,6.17,2.52,6.15,6.06,0,3.23-2,6.55-6.26,6.42-1.08,0-2.15,0-3.22,0Z"/><path class="cls-5" d="M1395.75,182.05q-28.27,0-56.55,0c-1.8,0-3.73.44-5.33-.81-2-1.56-3.61-3.4-3.21-6.17a6.63,6.63,0,0,1,5.64-5.85,24.94,24.94,0,0,1,3.67-.07H1451.7c2,0,4-.2,5.82.88a6.94,6.94,0,0,1,3.38,7,6.41,6.41,0,0,1-5.84,5c-1.37.12-2.75.07-4.13.07Z"/><path class="cls-6" d="M1301.83,210.56h-46.92c-1.23,0-2.46.05-3.68-.06a6.34,6.34,0,0,1-6-6.35,6.48,6.48,0,0,1,5.84-6.56,22.9,22.9,0,0,1,2.75,0H1350c.46,0,.92,0,1.38,0,4.4.13,7.19,2.74,7.11,6.65s-2.68,6.29-7,6.31c-12.27.08-24.53,0-36.8,0Z"/><path class="cls-7" d="M1431.62,210.45c-16.39,0-32.77-.1-49.16.07-4.37,0-7.51-2.74-7-7.47a5.82,5.82,0,0,1,5.24-5.45,21,21,0,0,1,2.75,0q48.24,0,96.47,0c3.24,0,6.23.43,7.7,3.7,2.21,4.91-1.38,8.67-5,9.17a24.52,24.52,0,0,1-3.21,0Z"/><path class="cls-8" d="M1279.81,182.39c-8.27,0-16.54,0-24.81,0a23,23,0,0,1-4.55-.37,6.22,6.22,0,0,1-5.18-6.55,6.58,6.58,0,0,1,5.24-6.17,19.48,19.48,0,0,1,3.67-.12h51a20.16,20.16,0,0,1,3.21.06,6.53,6.53,0,0,1,5.52,6.35c.07,3.48-1.71,5.63-5.18,6.5a18.4,18.4,0,0,1-4.56.31Q1292,182.41,1279.81,182.39Z"/><path class="cls-9" d="M1341.4,125.65c-8.42,0-16.85,0-25.27,0-3,0-5.43-.82-6.9-3.58a6.23,6.23,0,0,1,3.39-9,17.79,17.79,0,0,1,5.88-.79q23.43.08,46.87,0a18.57,18.57,0,0,1,5,.58c3.17.88,5.1,3.27,5.06,6.24a6.78,6.78,0,0,1-5.54,6.45,21.21,21.21,0,0,1-3.66.11Z"/><path class="cls-8" d="M1453.69,141.08h25.25c.92,0,1.84,0,2.75,0,3.91.19,6.65,2.64,6.79,6a6.39,6.39,0,0,1-6.72,6.55q-27.77.1-55.53,0c-4.28,0-6.68-2.55-6.58-6.49.1-3.74,2.42-6.06,6.5-6.1C1435.33,141,1444.51,141.08,1453.69,141.08Z"/><path class="cls-7" d="M1268.25,112.87c5.51,0,11,0,16.53,0,4.37.05,6.69,2,6.93,5.62a6.8,6.8,0,0,1-6.7,7.2c-10.87.14-21.74.1-32.6,0-2.9,0-6.3-2.49-6.62-4.77-.36-2.57-.44-5.14,2.07-7a5.81,5.81,0,0,1,3.86-1Z"/><path class="cls-6" d="M1408.8,125.65c-3.22,0-6.44.06-9.66,0-4.13-.1-7-2.64-7.1-6.24-.15-3.84,2.17-6.69,6.43-6.85,6.89-.27,13.8-.26,20.69,0a6.38,6.38,0,0,1,6.48,6.85c-.19,3.61-3,6.09-7.18,6.2C1415.24,125.72,1412,125.65,1408.8,125.65Z"/><path class="cls-9" d="M1323.94,267.44h-69.46a34.53,34.53,0,0,1-3.67-.05c-3.35-.35-5.39-2.77-5.36-6.24s2.08-5.82,5.47-6.15a31.22,31.22,0,0,1,3.21,0H1394c.92,0,1.84,0,2.76,0,3.76.24,6.17,2.51,6.15,6.06,0,3.23-2,6.54-6.26,6.42-1.08,0-2.15,0-3.22,0Z"/><path class="cls-6" d="M1395.75,295.84q-28.27,0-56.55,0c-1.8,0-3.73.43-5.33-.81-2-1.56-3.61-3.4-3.21-6.17a6.62,6.62,0,0,1,5.64-5.85,23.63,23.63,0,0,1,3.67-.07H1451.7c2,0,4-.2,5.82.88a6.94,6.94,0,0,1,3.38,7,6.41,6.41,0,0,1-5.84,5c-1.37.11-2.75.07-4.13.07Z"/><path class="cls-6" d="M1301.83,324.35h-46.92c-1.23,0-2.46,0-3.68-.06a6.35,6.35,0,0,1-6-6.35,6.48,6.48,0,0,1,5.84-6.56,22.9,22.9,0,0,1,2.75,0H1350c.46,0,.92,0,1.38,0,4.4.14,7.19,2.75,7.11,6.65s-2.68,6.29-7,6.32c-12.27.07-24.53,0-36.8,0Z"/><path class="cls-8" d="M1279.81,296.18c-8.27,0-16.54,0-24.81,0a23,23,0,0,1-4.55-.38,6.21,6.21,0,0,1-5.18-6.55,6.58,6.58,0,0,1,5.24-6.16,18.68,18.68,0,0,1,3.67-.12h51a20.16,20.16,0,0,1,3.21.06,6.53,6.53,0,0,1,5.52,6.35c.07,3.48-1.71,5.63-5.18,6.5a18.4,18.4,0,0,1-4.56.31Q1292,296.2,1279.81,296.18Z"/><path class="cls-5" d="M1341.4,239.44c-8.42,0-16.85,0-25.27,0-3,0-5.43-.82-6.9-3.59a6.22,6.22,0,0,1,3.39-9,17.79,17.79,0,0,1,5.88-.79q23.43.07,46.87,0a18.57,18.57,0,0,1,5,.58c3.17.88,5.1,3.27,5.06,6.24a6.78,6.78,0,0,1-5.54,6.45,20.26,20.26,0,0,1-3.66.1Z"/><path class="cls-8" d="M1453.69,254.87h25.25c.92,0,1.84,0,2.75,0,3.91.18,6.65,2.64,6.79,6a6.4,6.4,0,0,1-6.72,6.56q-27.77.11-55.53,0c-4.28,0-6.68-2.55-6.58-6.5.1-3.73,2.42-6.05,6.5-6.09C1435.33,254.81,1444.51,254.87,1453.69,254.87Z"/><path class="cls-7" d="M1268.25,226.66c5.51,0,11,0,16.53,0,4.37.05,6.69,2,6.93,5.62a6.8,6.8,0,0,1-6.7,7.2c-10.87.14-21.74.1-32.6,0-2.9,0-6.3-2.49-6.62-4.77-.36-2.57-.44-5.15,2.07-7a5.81,5.81,0,0,1,3.86-1Z"/><path class="cls-6" d="M1408.8,239.44c-3.22,0-6.44.06-9.66,0-4.13-.1-7-2.64-7.1-6.25-.15-3.83,2.17-6.68,6.43-6.84,6.89-.27,13.8-.26,20.69,0a6.38,6.38,0,0,1,6.48,6.84c-.19,3.62-3,6.1-7.18,6.21C1415.24,239.51,1412,239.44,1408.8,239.44Z"/><polygon class="cls-6" points="1187.84 254.69 1202.44 235.35 1217.37 254.69 1187.84 254.69"/><polygon class="cls-6" points="1121.3 524.49 1135.9 505.15 1150.83 524.49 1121.3 524.49"/><polygon class="cls-6" points="1062.57 159.47 1039.86 151.02 1054.12 131.18 1062.57 159.47"/><polygon class="cls-6" points="966.36 460.1 951.76 479.44 936.83 460.1 966.36 460.1"/><polygon class="cls-6" points="1077.1 602.47 1096.43 617.07 1077.1 632 1077.1 602.47"/><path class="cls-9" d="M1079.29,586.56h-4.39a62.14,62.14,0,0,1-62.07-62.08V198.35a61.7,61.7,0,0,1,4.88-24.17l8.89,3.77a52.08,52.08,0,0,0-4.12,20.4V524.48a52.49,52.49,0,0,0,52.42,52.43h4.39a52.49,52.49,0,0,0,52.43-52.43h9.65A62.15,62.15,0,0,1,1079.29,586.56Z"/><path class="cls-9" d="M1077.1,656.22c-71.82,0-130.26-58.43-130.26-130.25h9.51a120.75,120.75,0,0,0,241.5,0V254.69h9.5V526A130.4,130.4,0,0,1,1077.1,656.22Z"/><path class="cls-6" d="M1167.86,314.23a90.73,90.73,0,0,0-95-90.62c-45.63,2.1-83,38.54-86.2,84.1a90.41,90.41,0,0,0,19.2,62.61,76.59,76.59,0,0,1,16.82,47.3v12.91a20.52,20.52,0,0,0,20.52,20.52h67.9a20.52,20.52,0,0,0,20.51-20.52V417.58a76.42,76.42,0,0,1,16.82-47.24A90.33,90.33,0,0,0,1167.86,314.23Z"/><path class="cls-9" d="M1099.87,451.05h-57v35a5.78,5.78,0,0,0,.18,1.43l1.91,7.63c0,.07,0,.14.07.21v25a32.07,32.07,0,1,0,64.13,0V496.12a6,6,0,0,0,.38-1l1.9-7.58a5.8,5.8,0,0,0,.18-1.44v-35h-11.75Zm-22.77,92a22.79,22.79,0,0,1-22.77-22.77V499.32h45.54v20.95A22.8,22.8,0,0,1,1077.1,543Z"/><path class="cls-9" d="M1131.72,241.79a91.83,91.83,0,0,1,9.65,8.41V198.35a62.15,62.15,0,0,0-62.08-62.08h-4.39a61.89,61.89,0,0,0-18.46,2.8l2.87,9.21a52.55,52.55,0,0,1,15.59-2.35h4.39a52.48,52.48,0,0,1,52.43,52.42Z"/><path class="cls-9" d="M1131.72,469.77h9.65V380.89a75.3,75.3,0,0,0-9.65,33Z"/><path class="cls-9" d="M1077.1,66.61c-71.82,0-130.26,58.43-130.26,130.25V460.1h9.51V196.86a120.75,120.75,0,0,1,241.5,0h9.5A130.4,130.4,0,0,0,1077.1,66.61Z"/><path class="cls-9" d="M1109.16,229.34V202.56a32.07,32.07,0,1,0-64.13,0v26.86a89.07,89.07,0,0,1,9.3-3V202.56a22.77,22.77,0,1,1,45.54,0v23.85A88,88,0,0,1,1109.16,229.34Z"/><path class="cls-9" d="M1077.1,100.77a97.15,97.15,0,0,0-97,97V525a97.15,97.15,0,0,0,97,97v-9.65A87.48,87.48,0,0,1,989.72,525V338.43a91,91,0,0,1-3.06-30.72A89.93,89.93,0,0,1,989.72,290V197.81a87.38,87.38,0,0,1,174.76,0v91.88a90.81,90.81,0,0,1,0,49.09V525a87.84,87.84,0,0,1-42.93,75.25l4.92,8.31A97.54,97.54,0,0,0,1174.13,525V197.81A97.15,97.15,0,0,0,1077.1,100.77Z"/><rect class="cls-4" x="1042.87" y="455.45" width="68.75" height="31.16"/><path class="cls-9" d="M1097.46,453.08h-4.62V381h-31.38v72.12h-4.63V381h-9.08a12.76,12.76,0,0,1,0-25.52h1a12.78,12.78,0,0,1,12.76,12.76v8.13h31.38V368.2a12.77,12.77,0,0,1,12.75-12.76h1a12.76,12.76,0,0,1,0,25.52h-9.09Zm0-76.75h9.09a8.13,8.13,0,1,0,0-16.26h-1a8.14,8.14,0,0,0-8.13,8.13Zm-49.71-16.26a8.13,8.13,0,0,0,0,16.26h9.08V368.2a8.14,8.14,0,0,0-8.13-8.13Z"/><rect class="cls-4" x="1075.85" y="254.46" width="2.79" height="85.05"/><rect class="cls-4" x="1034.72" y="295.6" width="85.05" height="2.79"/><rect class="cls-4" x="1034.72" y="295.6" width="85.06" height="2.79" transform="translate(105.51 848.72) rotate(-45)"/><rect class="cls-4" x="1075.85" y="254.46" width="2.79" height="85.06" transform="translate(105.51 848.71) rotate(-45)"/><path class="cls-4" d="M1038,313.44l-1-2.61,79.48-30.29,1,2.61Z"/><path class="cls-4" d="M1091.09,337.23s-29.67-77.84-30.29-79.48l2.61-1,30.29,79.47Z"/><path class="cls-4" d="M1115.49,315.65l-77.62-34.77,1.14-2.55,77.62,34.78Z"/><path class="cls-4" d="M1061.13,336.37l-2.54-1.14s34.06-76,34.77-77.62l2.55,1.14Z"/><rect class="cls-7" x="1512.65" y="111.23" width="224.3" height="224.4" transform="translate(3249.61 446.86) rotate(-180)"/><path class="cls-9" d="M1681.53,149.3V222a36.37,36.37,0,0,1,0-72.74Z"/><path class="cls-8" d="M1717.88,149.3V222a36.37,36.37,0,0,1,0-72.74Z"/><path class="cls-8" d="M1645.18,149.3V222a36.37,36.37,0,0,1,0-72.74Z"/><ellipse class="cls-8" cx="1550.35" cy="183.03" rx="18.97" ry="18.97"/><rect class="cls-3" x="1698.92" y="278.69" width="18.97" height="42.69"/><rect class="cls-3" x="1657.82" y="278.69" width="18.97" height="42.69"/><rect class="cls-3" x="1619.89" y="278.69" width="18.97" height="42.69"/><rect class="cls-3" x="1717.88" y="236" width="18.97" height="42.69"/><rect class="cls-3" x="1678.37" y="236" width="18.97" height="42.69"/><rect class="cls-3" x="1640.44" y="236" width="18.97" height="42.69"/><rect class="cls-3" x="1599.35" y="236" width="18.97" height="42.69"/><path class="cls-9" d="M1590.93,428.29a8.67,8.67,0,1,1,8.66-8.66A8.67,8.67,0,0,1,1590.93,428.29Zm0-1a7.67,7.67,0,1,0-7.67-7.66A7.67,7.67,0,0,0,1590.93,427.29Z"/><path class="cls-9" d="M1590.93,432.64a13,13,0,1,1,13-13A13,13,0,0,1,1590.93,432.64Zm0-1a12,12,0,1,0-12-12A12,12,0,0,0,1590.93,431.64Z"/><path class="cls-9" d="M1590.93,437a17.35,17.35,0,1,1,17.35-17.35A17.37,17.37,0,0,1,1590.93,437Zm0-1a16.35,16.35,0,1,0-16.36-16.35A16.37,16.37,0,0,0,1590.93,436Z"/><path class="cls-9" d="M1590.93,441.32a21.7,21.7,0,1,1,21.69-21.69A21.72,21.72,0,0,1,1590.93,441.32Zm0-1a20.7,20.7,0,1,0-20.7-20.7A20.72,20.72,0,0,0,1590.93,440.33Z"/><path class="cls-9" d="M1590.93,445.67a26,26,0,1,1,26-26A26.07,26.07,0,0,1,1590.93,445.67Zm0-1a25,25,0,1,0-25-25A25.07,25.07,0,0,0,1590.93,444.67Z"/><path class="cls-9" d="M1590.93,450a30.38,30.38,0,1,1,30.38-30.38A30.42,30.42,0,0,1,1590.93,450Zm0-1a29.38,29.38,0,1,0-29.39-29.38A29.41,29.41,0,0,0,1590.93,449Z"/><path class="cls-9" d="M1590.93,454.36a34.73,34.73,0,1,1,34.72-34.73A34.77,34.77,0,0,1,1590.93,454.36Zm0-1a33.73,33.73,0,1,0-33.73-33.73A33.76,33.76,0,0,0,1590.93,453.36Z"/><path class="cls-9" d="M1590.93,458.7A39.07,39.07,0,1,1,1630,419.63,39.11,39.11,0,0,1,1590.93,458.7Zm0-1a38.07,38.07,0,1,0-38.07-38.07A38.12,38.12,0,0,0,1590.93,457.7Z"/><path class="cls-9" d="M1590.93,463a43.42,43.42,0,1,1,43.41-43.41A43.46,43.46,0,0,1,1590.93,463Zm0-1a42.42,42.42,0,1,0-42.42-42.42A42.47,42.47,0,0,0,1590.93,462.05Z"/><path class="cls-9" d="M1590.93,467.39a47.76,47.76,0,1,1,47.76-47.76A47.81,47.81,0,0,1,1590.93,467.39Zm0-1a46.76,46.76,0,1,0-46.76-46.76A46.82,46.82,0,0,0,1590.93,466.39Z"/><path class="cls-9" d="M1590.93,471.73a52.1,52.1,0,1,1,52.1-52.1A52.17,52.17,0,0,1,1590.93,471.73Zm0-1a51.1,51.1,0,1,0-51.11-51.1A51.16,51.16,0,0,0,1590.93,470.73Z"/><path class="cls-9" d="M1590.93,476.08a56.45,56.45,0,1,1,56.44-56.45A56.52,56.52,0,0,1,1590.93,476.08Zm0-1a55.45,55.45,0,1,0-55.45-55.45A55.51,55.51,0,0,0,1590.93,475.08Z"/><path class="cls-9" d="M1590.93,480.42a60.79,60.79,0,1,1,60.79-60.79A60.86,60.86,0,0,1,1590.93,480.42Zm0-1a59.79,59.79,0,1,0-59.79-59.79A59.86,59.86,0,0,0,1590.93,479.42Z"/><path class="cls-9" d="M1590.93,484.76a65.13,65.13,0,1,1,65.13-65.13A65.21,65.21,0,0,1,1590.93,484.76Zm0-1a64.13,64.13,0,1,0-64.14-64.13A64.2,64.2,0,0,0,1590.93,483.76Z"/><path class="cls-9" d="M1590.93,489.11a69.48,69.48,0,1,1,69.47-69.48A69.56,69.56,0,0,1,1590.93,489.11Zm0-1a68.48,68.48,0,1,0-68.48-68.48A68.55,68.55,0,0,0,1590.93,488.11Z"/><path class="cls-9" d="M1590.93,493.45a73.82,73.82,0,1,1,73.82-73.82A73.9,73.9,0,0,1,1590.93,493.45Zm0-1a72.82,72.82,0,1,0-72.83-72.82A72.91,72.91,0,0,0,1590.93,492.45Z"/><path class="cls-9" d="M1590.93,497.79a78.17,78.17,0,1,1,78.16-78.16A78.25,78.25,0,0,1,1590.93,497.79Zm0-1a77.17,77.17,0,1,0-77.17-77.17A77.25,77.25,0,0,0,1590.93,496.8Z"/><rect class="cls-8" x="1590.93" y="335.63" width="146.03" height="84"/><rect class="cls-10" x="1590.93" y="419.63" width="146.03" height="84"/><rect class="cls-9" x="1633.62" y="419.63" width="103.34" height="84"/><line class="cls-11" x1="1590.93" y1="427.79" x2="1736.96" y2="427.79"/><line class="cls-11" x1="1590.93" y1="432.14" x2="1736.96" y2="432.14"/><line class="cls-11" x1="1590.93" y1="436.48" x2="1736.96" y2="436.48"/><line class="cls-11" x1="1590.93" y1="440.83" x2="1736.96" y2="440.83"/><line class="cls-11" x1="1590.93" y1="445.17" x2="1736.96" y2="445.17"/><line class="cls-11" x1="1590.93" y1="449.51" x2="1736.96" y2="449.51"/><line class="cls-11" x1="1590.93" y1="453.86" x2="1736.96" y2="453.86"/><line class="cls-11" x1="1590.93" y1="458.2" x2="1736.96" y2="458.2"/><line class="cls-11" x1="1590.93" y1="462.54" x2="1736.96" y2="462.54"/><line class="cls-11" x1="1590.93" y1="466.89" x2="1736.96" y2="466.89"/><line class="cls-11" x1="1590.93" y1="471.23" x2="1736.96" y2="471.23"/><line class="cls-11" x1="1590.93" y1="475.58" x2="1736.96" y2="475.58"/><line class="cls-11" x1="1590.93" y1="479.92" x2="1736.96" y2="479.92"/><line class="cls-11" x1="1590.93" y1="484.26" x2="1736.96" y2="484.26"/><line class="cls-11" x1="1590.93" y1="488.61" x2="1736.96" y2="488.61"/><line class="cls-11" x1="1590.93" y1="492.95" x2="1736.96" y2="492.95"/><line class="cls-11" x1="1590.93" y1="497.29" x2="1736.96" y2="497.29"/><path class="cls-1" d="M1687.11,380.13a21.62,21.62,0,1,1,21.62,21.63A21.65,21.65,0,0,1,1687.11,380.13Zm1.73,0a19.89,19.89,0,1,0,19.89-19.9A19.92,19.92,0,0,0,1688.84,380.13Z"/><path class="cls-1" d="M1693.64,380.13a15.1,15.1,0,1,1,15.09,15.1A15.11,15.11,0,0,1,1693.64,380.13Zm1.73,0a13.37,13.37,0,1,0,13.36-13.37A13.38,13.38,0,0,0,1695.37,380.13Z"/><path class="cls-1" d="M1700,380.13a8.77,8.77,0,1,1,8.76,8.76A8.77,8.77,0,0,1,1700,380.13Zm1.73,0a7,7,0,1,0,7-7A7,7,0,0,0,1701.7,380.13Z"/><path class="cls-1" d="M1644.73,380.13a21.63,21.63,0,1,1,21.62,21.63A21.65,21.65,0,0,1,1644.73,380.13Zm1.73,0a19.9,19.9,0,1,0,19.89-19.9A19.92,19.92,0,0,0,1646.46,380.13Z"/><path class="cls-1" d="M1651.26,380.13a15.1,15.1,0,1,1,15.09,15.1A15.11,15.11,0,0,1,1651.26,380.13Zm1.73,0a13.37,13.37,0,1,0,13.36-13.37A13.39,13.39,0,0,0,1653,380.13Z"/><path class="cls-1" d="M1657.59,380.13a8.77,8.77,0,1,1,8.76,8.76A8.77,8.77,0,0,1,1657.59,380.13Zm1.73,0a7,7,0,1,0,7-7A7,7,0,0,0,1659.32,380.13Z"/><path class="cls-1" d="M1602.47,381a21.62,21.62,0,1,1,21.62,21.63A21.65,21.65,0,0,1,1602.47,381Zm1.73,0a19.89,19.89,0,1,0,19.89-19.9A19.92,19.92,0,0,0,1604.2,381Z"/><path class="cls-1" d="M1609,381a15.1,15.1,0,1,1,15.09,15.1A15.11,15.11,0,0,1,1609,381Zm1.73,0a13.37,13.37,0,1,0,13.36-13.37A13.38,13.38,0,0,0,1610.73,381Z"/><path class="cls-1" d="M1615.33,381a8.77,8.77,0,1,1,8.76,8.77A8.78,8.78,0,0,1,1615.33,381Zm1.73,0a7,7,0,1,0,7-7A7,7,0,0,0,1617.06,381Z"/><rect class="cls-7" x="1676.39" y="535.74" width="61.28" height="12.68"/><rect class="cls-9" x="1649.62" y="566.46" width="61.28" height="12.68"/><rect class="cls-7" x="1589.04" y="598.4" width="61.28" height="12.68"/><rect class="cls-7" x="1713.02" y="597.7" width="14.09" height="14.09"/><rect class="cls-7" x="1683.43" y="597.7" width="14.09" height="14.09"/><rect class="cls-7" x="1713.02" y="626.82" width="14.09" height="14.09"/><rect class="cls-9" x="1683.43" y="626.82" width="14.09" height="14.09"/><path class="cls-12" d="M1651.2,626.3h15.15v15.15H1651.2Zm14.09,1.05h-13v13h13Z"/><rect class="cls-9" x="1622.15" y="565.75" width="14.09" height="14.09"/><rect class="cls-9" x="1648.21" y="535.04" width="14.09" height="14.09"/><path class="cls-12" d="M1596.61,565.22h15.15v15.15h-15.15Zm14.09,1.06h-13v13h13Z"/><rect class="cls-9" x="1597.14" y="535.04" width="14.09" height="14.09"/><rect class="cls-7" x="1624.26" y="535.04" width="14.09" height="14.09"/></svg>