<svg id="Layer_1" data-name="Layer 1" xmlns="http://www.w3.org/2000/svg" viewBox="0 0 1113.55 418.13"><defs><style>.cls-1{fill:#0058a2;}.cls-2{fill:none;stroke:#121212;stroke-miterlimit:10;stroke-width:2.99px;}.cls-3{fill:#0f4f3f;}.cls-4{fill:#00adcf;}.cls-5{fill:#fff9f4;}.cls-6{fill:#b1752a;}.cls-7{fill:#f7b11d;}.cls-8{fill:#eeedee;}.cls-9{fill:#2a2828;}.cls-10{fill:#fefefe;}.cls-11{fill:#f15d22;}.cls-12{fill:#161515;}.cls-13{fill:#f39bc2;}</style></defs><rect class="cls-1" width="1113.55" height="418.13"/><path class="cls-2" d="M737,197.86v91"/><path class="cls-2" d="M782.53,243.37h-91"/><path class="cls-2" d="M769.21,211.19l-64.36,64.36"/><path class="cls-2" d="M769.21,275.55l-64.36-64.36"/><path class="cls-2" d="M779.55,227.16l-85,32.42"/><path class="cls-2" d="M753.24,285.89l-32.42-85"/><path class="cls-2" d="M778.56,262,695.5,224.76"/><path class="cls-2" d="M718.42,284.9l37.22-83.06"/><rect class="cls-3" x="576.53" y="312.16" width="216.59" height="106.25"/><path class="cls-4" d="M793.12,418.41V351.17A68.35,68.35,0,0,0,737,418.41Z"/><circle class="cls-5" cx="611.17" cy="365.26" r="11.56"/><path class="cls-6" d="M599.61,365.26c0,.23,0,.45,0,.68H622.7c0-.23,0-.45,0-.68a11.56,11.56,0,0,0-23.12,0Z"/><polygon class="cls-7" points="695.63 365.75 739.81 365.75 793.12 312.44 792.85 312.16 749.21 312.16 695.63 365.75"/><rect class="cls-8" x="694.92" y="388.61" width="86.92" height="1.32"/><rect class="cls-8" x="695.04" y="376.37" width="86.92" height="1.32"/><polygon class="cls-8" points="692.31 312.16 639.95 365.01 640.97 366.03 694.34 312.16 692.31 312.16"/><polygon class="cls-8" points="726.3 312.16 673.95 365.01 674.97 366.03 728.34 312.16 726.3 312.16"/><polygon class="cls-8" points="703.64 312.16 651.28 365.01 652.31 366.03 705.67 312.16 703.64 312.16"/><polygon class="cls-8" points="714.97 312.16 662.61 365.01 663.64 366.03 717 312.16 714.97 312.16"/><rect class="cls-9" x="946.18" y="51.64" width="139.61" height="65.48"/><path class="cls-7" d="M996.1,80.8H963.81a16.26,16.26,0,0,1-1.71,0,2.91,2.91,0,0,1,0-5.76c.5,0,1,0,1.5,0h65c.43,0,.86,0,1.28,0a2.74,2.74,0,0,1,2.86,2.82,2.78,2.78,0,0,1-2.91,3H996.1Z"/><path class="cls-6" d="M1029.49,94H1003.2a3.68,3.68,0,0,1-2.48-.38,3,3,0,0,1-1.49-2.87,3.08,3.08,0,0,1,2.62-2.72,12.06,12.06,0,0,1,1.7,0h51.94a5.07,5.07,0,0,1,2.71.41,3.21,3.21,0,0,1,1.57,3.25,3,3,0,0,1-2.71,2.31c-.64.06-1.28,0-1.92,0Z"/><path class="cls-10" d="M985.82,107.26H964c-.57,0-1.14,0-1.71,0a2.94,2.94,0,0,1-2.79-3,3,3,0,0,1,2.71-3,11.1,11.1,0,0,1,1.29,0h44.69c.21,0,.43,0,.64,0,2,.06,3.35,1.27,3.31,3.09a2.94,2.94,0,0,1-3.23,2.94c-5.7,0-11.41,0-17.11,0Z"/><path class="cls-4" d="M1046.16,107.21c-7.62,0-15.24,0-22.85,0a3,3,0,0,1-3.25-3.47,2.68,2.68,0,0,1,2.43-2.53,9.09,9.09,0,0,1,1.28,0q22.43,0,44.85,0c1.5,0,2.89.2,3.58,1.72a3,3,0,0,1-2.34,4.26,10.57,10.57,0,0,1-1.49,0Z"/><path class="cls-1" d="M975.59,94.16c-3.85,0-7.69,0-11.54,0a11.49,11.49,0,0,1-2.11-.18,2.89,2.89,0,0,1-2.41-3A3.05,3.05,0,0,1,962,88.07a8.74,8.74,0,0,1,1.7,0h23.7a9.22,9.22,0,0,1,1.49,0A3,3,0,0,1,991.43,91,2.83,2.83,0,0,1,989,94a8.87,8.87,0,0,1-2.12.14C983.13,94.17,979.36,94.16,975.59,94.16Z"/><path class="cls-11" d="M1004.22,67.79c-3.92,0-7.83,0-11.75,0a3.25,3.25,0,0,1-3.21-1.66,2.9,2.9,0,0,1,1.58-4.2,8.31,8.31,0,0,1,2.73-.37c7.27,0,14.53,0,21.79,0a8.61,8.61,0,0,1,2.32.27,2.94,2.94,0,0,1,2.35,2.9,3.15,3.15,0,0,1-2.57,3,9.64,9.64,0,0,1-1.7,0Z"/><path class="cls-1" d="M1056.42,75h11.74c.42,0,.85,0,1.28,0a3,3,0,0,1,3.15,2.82,3,3,0,0,1-3.12,3q-12.92.06-25.82,0a2.93,2.93,0,1,1,0-5.86C1047.89,74.93,1052.15,75,1056.42,75Z"/><path class="cls-4" d="M970.21,61.85c2.56,0,5.12,0,7.69,0,2,0,3.11.93,3.22,2.61A3.16,3.16,0,0,1,978,67.81c-5,.07-10.1,0-15.15,0-1.35,0-2.93-1.16-3.08-2.22s-.2-2.39,1-3.28a2.7,2.7,0,0,1,1.8-.47Z"/><path class="cls-10" d="M1035.55,67.79c-1.5,0-3,0-4.49,0a3.09,3.09,0,0,1-3.3-2.9,2.89,2.89,0,0,1,3-3.19c3.2-.12,6.42-.12,9.62,0a3,3,0,0,1,3,3.18,3.1,3.1,0,0,1-3.34,2.89C1038.55,67.82,1037.05,67.79,1035.55,67.79Z"/><path class="cls-11" d="M792.45.11c.74,0,1.47-.11,2.2-.11H944.84c.65,0,1.29,0,1.93.06v418l-7.74,0a81.54,81.54,0,0,0-9.38,0c-3.45-.19-6.9-.16-10.35,0a88.42,88.42,0,0,0-9.21,0c-3.44-.15-6.89-.15-10.33,0a83.5,83.5,0,0,0-9.36,0c-3.45-.19-6.9-.16-10.36,0a81.25,81.25,0,0,0-9.1,0c-3.48-.16-7-.16-10.43,0a80.84,80.84,0,0,0-9.34,0c-3.42-.19-6.85-.16-10.28,0a85.74,85.74,0,0,0-9.21,0c-3.48-.16-6.95-.16-10.43,0a80.84,80.84,0,0,0-9.34,0c-3.43-.19-6.86-.15-10.29,0L792,418q0-10.08,0-20.17c0-4.7-.08-9.39-.12-14.09q0-11,0-22a74.18,74.18,0,0,0,0-9.43c.09-7.34.17-14.68,0-22,.05-1.1.13-2.21.13-3.31V94.27c0-1.11,0-2.22,0-3.32.58-.3.62-.84.61-1.39,0-2.54-.09-5.07-.13-7.6,0-.54,0-1.08,0-1.63.19-5.35.2-10.71,0-16.06,0-.54,0-1.09,0-1.63.19-5.36.2-10.71,0-16.07,0-.54,0-1.08,0-1.63.2-5.38.19-10.76,0-16.14V27.25c.2-5.38.19-10.76,0-16.14V9.56Q792.4,4.84,792.45.11Z"/><path class="cls-10" d="M915.73,163.88c1.06,3.85,2.38,7.62,2.93,11.63a49,49,0,0,1-2.18,22.42,6.77,6.77,0,0,0-.75,2.61L911.15,210A124.5,124.5,0,0,1,901,224.48a12,12,0,0,0-3,7.23,83.74,83.74,0,0,0-.14,8.82,6.8,6.8,0,0,1-1.47,4.6c-1.61,1.32-3.55,1.37-5.5,1.38-.92-.66-2-.31-2.94-.33-3.75,0-7.49,0-11.29,0V213.33c2,0,3.83.12,5.65,0a7.4,7.4,0,0,0-.37-14.77c-4,0-7,3.21-7.06,7.57,0,1.82,0,3.63,0,5.5H863.71c0-1.47,0-2.83,0-4.19a13,13,0,0,0-.34-3.29,7,7,0,0,0-13.5-1c-2,5.06,1.33,10,6.89,10.21,1.71.07,3.43,0,5.22,0v32.83c-3.85,0-7.6,0-11.34,0-1,0-2-.38-2.93.31-1.91,0-3.83,0-5.5-1.17a7,7,0,0,1-1.66-5.08c.11-2.56.13-5.14,0-7.71a11.77,11.77,0,0,0-3.22-8.19c-3.53-4.54-6.88-9.2-9.94-14.07L822.91,201c-.94-3.7-2.37-7.26-2.91-11.1A49.62,49.62,0,0,1,822.49,165c.19-.5.55-1,.42-1.55l4.5-8a71.93,71.93,0,0,1,9.92-10.5,35,35,0,0,0,4.83-3.36l10.13-4.91a28.54,28.54,0,0,0,4.89-1.34,50.2,50.2,0,0,1,24.3,0,22,22,0,0,0,4.5,1.27c3.54,1.53,7,3.15,10.42,5a32,32,0,0,0,4.77,3.31,74.3,74.3,0,0,1,10,10.63Z"/><path class="cls-12" d="M929.72,144.25c0,3.69,0,7.37,0,11.06,0,55.1-.14,110.19.06,165.29.1,26.46-18.51,52.12-46.65,58.47-19.9,4.48-38.07.08-53.7-13.38a59.25,59.25,0,0,1-19.56-33.37,54.42,54.42,0,0,1-1.29-11.47q0-25,0-50a4.34,4.34,0,0,1,.29-2.33,9.11,9.11,0,0,1,4.09,0c.7,1.05.41,2.1.41,3.08,0,15.66,0,31.32,0,47a54.71,54.71,0,0,0,3.3,20.25c7.62,19.69,21.69,31.93,42.44,36.11,28.29,5.71,57.88-12.32,64.85-43.14a54.93,54.93,0,0,0,1.28-12q-.06-86.1,0-172.2c0-1.11,0-2.22,0-3.32A11.81,11.81,0,0,1,929.72,144.25Z"/><path class="cls-12" d="M808.55,252.2q0-77,0-154c0-27.35,18.11-50.58,42.48-57.92,20.41-6.13,39.27-2.63,56.08,10.55,11.76,9.21,18.8,21.44,21.76,36a41.66,41.66,0,0,1,.82,8.5q0,15.34,0,30.69a2.56,2.56,0,0,1-.4,2h-3.71c-.69-.78-.36-1.75-.36-2.62,0-8.85,0-17.7,0-26.54A55.28,55.28,0,0,0,913.52,64c-8.88-11.41-20.46-18.61-34.79-20.94-20.5-3.34-37.72,3.08-51.58,18.32A53.09,53.09,0,0,0,813.94,90a68,68,0,0,0-.55,10.17q0,74.23,0,148.47c0,1.19,0,2.39,0,3.59A12.4,12.4,0,0,1,808.55,252.2Z"/><path class="cls-12" d="M822.91,201l4.49,9.32c0,.92-.08,1.84-.08,2.76q0,51.56,0,103.1a43.87,43.87,0,0,0,1.1,9.56c4.65,21.08,25.41,35.54,46.87,32.16a41.48,41.48,0,0,0,28.09-17.19c5.71-7.79,7.89-16.68,7.9-26.16q.08-50.86,0-101.73c0-.91-.09-1.83-.13-2.75l4.58-9.49c0,.92.06,1.84.06,2.76q0,56.65,0,113.31a46.44,46.44,0,0,1-42.91,46.22c-15.55,1.11-28.51-4.3-38.75-15.83a43.75,43.75,0,0,1-11.32-30q.06-56.37,0-112.75C822.82,203.17,822.88,202.07,822.91,201Z"/><path class="cls-12" d="M827.41,155.41l-4.5,8c0-1-.09-2-.09-3,0-19.81.12-39.61,0-59.42-.14-18.62,12.28-36.48,30-42.84,16.14-5.8,31.38-3.65,45,6.78a44.67,44.67,0,0,1,17.56,30.17,52,52,0,0,1,.46,7.15v58.3c0,1.11,0,2.21-.06,3.32l-4.59-8.34c.05-.73.14-1.46.14-2.19,0-16.66,0-33.33,0-50a48,48,0,0,0-.58-8,41,41,0,0,0-13.76-25c-10.43-9-22.43-12.35-36.06-9.69a42,42,0,0,0-33.55,41.14q0,19.6,0,39.22C827.33,145.84,827.38,150.63,827.41,155.41Z"/><path class="cls-12" d="M901,224.48c.63.82.31,1.78.31,2.67q0,43.39,0,86.8c0,15.89-10.67,29.11-26.49,32a30.68,30.68,0,0,1-22-4c-.68-.41-1.52-.7-1.9-1.64.2-.34.4-.75.65-1.12.51-.76,1-1.5,1.68-2.4A46.52,46.52,0,0,0,862,340.7c15.09,4.31,31.18-5.6,34-21a26.33,26.33,0,0,0,.51-4.92q0-34.14,0-68.28c0-.46,0-.92-.07-1.37a6.8,6.8,0,0,0,1.47-4.6,83.74,83.74,0,0,1,.14-8.82A12,12,0,0,1,901,224.48Z"/><path class="cls-12" d="M881.48,135.34c0-9.83.06-19.67,0-29.51a12.43,12.43,0,0,0-11.12-12.3,12.26,12.26,0,0,0-13,9.26,8,8,0,0,0-.26,2.17q0,15.17,0,30.34a28.54,28.54,0,0,1-4.89,1.34c0-10.3-.17-20.6,0-30.9.13-8,5-14.48,12.7-16.33A16.68,16.68,0,0,1,886,105.16c-.14,10.48,0,21-.06,31.45A22,22,0,0,1,881.48,135.34Z"/><path class="cls-12" d="M837.33,144.91c0-14.45-.3-28.91.08-43.36.25-9.36,4.63-17.1,12-22.91,8.61-6.78,18.34-8.35,28.85-5.62.69.18,1.35.48,1.93.68.32,1-.23,1.6-.5,2.24s-.27,1.45-1,2c-2-.22-3.82-1-5.82-1.24-9.7-1.23-17.75,2-24.18,9.12A25.72,25.72,0,0,0,842.08,104c.14,12.52.07,25,.08,37.56A35,35,0,0,1,837.33,144.91Z"/><path class="cls-12" d="M842.22,245.33c0,.91-.1,1.83-.1,2.75q0,33.22,0,66.46a25.25,25.25,0,0,0,1.83,9.92A18.65,18.65,0,0,1,840,327.1a25.34,25.34,0,0,1-2.71-10.54c-.15-2-.06-4-.06-6.07V227.66c0-1.1.05-2.2.07-3.31a11.77,11.77,0,0,1,3.22,8.19c.13,2.57.11,5.15,0,7.71A7,7,0,0,0,842.22,245.33Z"/><path class="cls-12" d="M890.9,246.51l-.12,2.82c-14.32.22-28.64.13-43,0,0-1-.06-1.92-.1-2.88.91-.69,2-.3,2.93-.31,3.74-.06,7.49,0,11.34,0V213.34c-1.79,0-3.51.06-5.22,0-5.56-.21-8.88-5.15-6.89-10.21a7,7,0,0,1,13.5,1,13,13,0,0,1,.34,3.29c0,1.36,0,2.72,0,4.19h11.17c0-1.87,0-3.68,0-5.5.05-4.36,3-7.55,7.06-7.57a7.4,7.4,0,0,1,.37,14.77c-1.82.15-3.66,0-5.65,0v32.84c3.8,0,7.54,0,11.29,0C888.94,246.2,890,245.85,890.9,246.51Zm-16.15-.45V213.54h-10.9v32.52Zm-12.69-34.35c-.06-2.75.37-5.14-.31-7.48a5.39,5.39,0,0,0-7.39-3.6c-2.51,1.1-3.7,3.36-3.31,6.3a5.48,5.48,0,0,0,5,4.75C857.93,211.85,859.86,211.71,862.06,211.71Zm14.47,0c2.59-.16,5,.38,7.26-.44a5.74,5.74,0,0,0-2.06-11.14,5.49,5.49,0,0,0-5.16,4.82C876.41,207.15,876.53,209.34,876.53,211.75Z"/><path class="cls-12" d="M894.12,83.49a34,34,0,0,1,7.2,22c-.12,12.13,0,24.26,0,36.4,0,1-.07,2-.11,3a32,32,0,0,1-4.77-3.31c0-13.35.18-26.71,0-40.06a23.05,23.05,0,0,0-5.56-14.36A13.87,13.87,0,0,1,894.12,83.49Z"/><path class="cls-12" d="M890.75,272.65a44.58,44.58,0,0,1-2.87,4.65A9.84,9.84,0,0,0,886,284c.09,9.38-.22,18.77.11,28.15.32,8.84-7.34,16.24-14.78,17.07-9.59,1.06-17.45-6-18.62-13.44a33.59,33.59,0,0,1-.45-5.2c0-9.38,0-18.76,0-28.15a7.51,7.51,0,0,0-1.33-4.62,25.63,25.63,0,0,1-3.1-5.15Zm-33.52,11.67c0,.67-.09,1.12-.09,1.57,0,9,0,18.05,0,27.07a12.08,12.08,0,0,0,11.09,11.65,12.42,12.42,0,0,0,13.26-12.4q0-13.12,0-26.24c0-.53.18-1.11-.39-1.65Z"/><path class="cls-7" d="M890.75,272.65l-42.91,0q0-9.72,0-19.43l43,0C890.89,259.71,891,266.18,890.75,272.65Z"/><path class="cls-7" d="M890.79,253.24l-43,0v-3.82c14.32.08,28.64.17,43,0A16,16,0,0,1,890.79,253.24Z"/><path class="cls-10" d="M874.75,246.06h-10.9V213.54h10.9Z"/><path class="cls-10" d="M862.06,211.71c-2.2,0-4.13.14-6,0a5.48,5.48,0,0,1-5-4.75c-.39-2.94.8-5.2,3.31-6.3a5.39,5.39,0,0,1,7.39,3.6C862.43,206.57,862,209,862.06,211.71Z"/><path class="cls-10" d="M876.53,211.75c0-2.41-.12-4.6,0-6.76a5.49,5.49,0,0,1,5.16-4.82,5.74,5.74,0,0,1,2.06,11.14C881.48,212.13,879.12,211.59,876.53,211.75Z"/><polygon class="cls-10" points="919.53 144.27 927.49 133.72 935.64 144.27 919.53 144.27"/><polygon class="cls-10" points="887.58 91.64 884.94 78.68 898.24 79.56 887.58 91.64"/><polygon class="cls-10" points="819.02 250.89 811.16 261.52 802.9 251.05 819.02 250.89"/><polygon class="cls-10" points="848.48 321 847.97 334.21 835.25 330.19 848.48 321"/><rect class="cls-13" x="946.77" y="117.12" width="117.18" height="117.18"/><rect class="cls-1" x="1003.02" y="180.57" width="46.39" height="45.31"/><path class="cls-7" d="M1037.3,175.47a40.84,40.84,0,0,1-.32,5.1h-34.24v34.58a40.05,40.05,0,1,1,34.56-39.68Z"/><path class="cls-4" d="M1037,180.57a40.08,40.08,0,0,1-34.24,34.58V180.57Z"/><rect class="cls-4" x="946.81" y="233.64" width="166.73" height="166.81"/><path class="cls-5" d="M990.46,319.83a1.25,1.25,0,0,1-1.25-1.25V251.22a1.25,1.25,0,0,1,2.49,0v67.36A1.25,1.25,0,0,1,990.46,319.83Z"/><path class="cls-5" d="M1024.12,286.15H956.79a1.25,1.25,0,0,1,0-2.49h67.33a1.25,1.25,0,0,1,0,2.49Z"/><path class="cls-5" d="M966.65,310a1.24,1.24,0,0,1-.88-2.12l47.61-47.63,1.76,1.76L967.53,309.6A1.24,1.24,0,0,1,966.65,310Z"/><path class="cls-5" d="M1013.38,309.6,965.77,262a1.24,1.24,0,0,1,1.76-1.76l47.61,47.63Z"/><path class="cls-9" d="M979.57,389.6a26.35,26.35,0,1,1,26.35-26.35A26.38,26.38,0,0,1,979.57,389.6Zm0-50.59a24.25,24.25,0,1,0,24.24,24.24A24.26,24.26,0,0,0,979.57,339Z"/><path class="cls-9" d="M979.57,381.65a18.4,18.4,0,1,1,18.4-18.4A18.41,18.41,0,0,1,979.57,381.65Zm0-34.69a16.29,16.29,0,1,0,16.29,16.29A16.31,16.31,0,0,0,979.57,347Z"/><path class="cls-9" d="M979.57,373.93a10.68,10.68,0,1,1,10.68-10.68A10.69,10.69,0,0,1,979.57,373.93Zm0-19.25a8.57,8.57,0,1,0,8.57,8.57A8.57,8.57,0,0,0,979.57,354.68Z"/><path class="cls-9" d="M1031.21,389.6a26.35,26.35,0,1,1,26.34-26.35A26.38,26.38,0,0,1,1031.21,389.6Zm0-50.59a24.25,24.25,0,1,0,24.23,24.24A24.26,24.26,0,0,0,1031.21,339Z"/><path class="cls-9" d="M1031.21,381.65a18.4,18.4,0,1,1,18.39-18.4A18.41,18.41,0,0,1,1031.21,381.65Zm0-34.69a16.29,16.29,0,1,0,16.28,16.29A16.31,16.31,0,0,0,1031.21,347Z"/><path class="cls-9" d="M1031.21,373.93a10.68,10.68,0,1,1,10.67-10.68A10.69,10.69,0,0,1,1031.21,373.93Zm0-19.25a8.57,8.57,0,1,0,8.57,8.57A8.57,8.57,0,0,0,1031.21,354.68Z"/><path class="cls-9" d="M1082.7,390.66A26.36,26.36,0,1,1,1109,364.3,26.37,26.37,0,0,1,1082.7,390.66Zm0-50.6a24.25,24.25,0,1,0,24.23,24.24A24.27,24.27,0,0,0,1082.7,340.06Z"/><path class="cls-9" d="M1082.7,382.7a18.4,18.4,0,1,1,18.39-18.4A18.41,18.41,0,0,1,1082.7,382.7Zm0-34.69A16.29,16.29,0,1,0,1099,364.3,16.31,16.31,0,0,0,1082.7,348Z"/><path class="cls-9" d="M1082.7,375a10.69,10.69,0,1,1,10.67-10.69A10.7,10.7,0,0,1,1082.7,375Zm0-19.26a8.58,8.58,0,1,0,8.57,8.57A8.58,8.58,0,0,0,1082.7,355.73Z"/><rect class="cls-9" x="1031.3" y="233.64" width="82.25" height="82.29"/><ellipse class="cls-11" cx="1085.8" cy="258.62" rx="9.69" ry="9.7"/><path class="cls-11" d="M1059.37,300.34a10.88,10.88,0,1,1,10.86-10.87A10.88,10.88,0,0,1,1059.37,300.34Zm0-19.4a8.53,8.53,0,1,0,8.51,8.53A8.54,8.54,0,0,0,1059.37,280.94Z"/></svg>