<svg id="Layer_1" data-name="Layer 1" xmlns="http://www.w3.org/2000/svg" viewBox="0 0 855.72 259.3"><defs><style>.cls-1{fill:#2a2828;}.cls-2{fill:#0058a2;}.cls-3{fill:#00adcf;}.cls-4{fill:#231f20;}</style></defs><path class="cls-1" d="M227.47,125A22.09,22.09,0,0,0,196.07,94Z"/><path class="cls-1" d="M174.81,18.42H67.35l40.22,40.22h67.24a92,92,0,0,1,68.75,153.12l-.63.71,28.45,28.45.71-.77A131.66,131.66,0,0,0,307,150.64C307,77.74,247.72,18.42,174.81,18.42Z"/><polygon class="cls-1" points="50.66 18.42 13.32 18.42 65.35 58.35 65.64 58.64 90.89 58.64 50.66 18.42"/><path class="cls-1" d="M117.79,129.67a55.45,55.45,0,0,1,11.53-31.53L101.19,70a95,95,0,0,0-23,59.66Z"/><path class="cls-2" d="M118.25,139.67H78.46a95.32,95.32,0,0,0,47.26,75l19.8-34.29A55.79,55.79,0,0,1,118.25,139.67Z"/><path class="cls-3" d="M207.54,176.35a55.76,55.76,0,0,1-52.93,8.29l-20,34.61a95.31,95.31,0,0,0,101-14.77Z"/><path class="cls-4" d="M416.37,186.52q-24,0-35.14-11.62T370.06,142q0-21.26,11.26-32.88t35.05-11.62q24,0,35.22,11.62T462.85,142q0,21.25-11.17,32.88T416.37,186.52Zm0-20.72q11.7,0,16.75-5.31t5-18.47q0-13.14-5-18.46t-16.75-5.32q-11.53,0-16.58,5.32t-5,18.46q0,13.15,5,18.47T416.37,165.8Z"/><path class="cls-4" d="M691.58,186.52a118,118,0,0,1-18.2-1.35,71.39,71.39,0,0,1-13.87-3.33V161.66a69.85,69.85,0,0,0,14.23,3.87,87.46,87.46,0,0,0,14.59,1.35q9,0,12.71-1.08a4.64,4.64,0,0,0,3.69-4.86q0-4.32-5.68-6.31t-16.84-5.58q-11.72-4-18-9.55t-6.3-16.58q0-12.24,8.91-18.82t28.74-6.58a91,91,0,0,1,15,1.17,80.48,80.48,0,0,1,11.89,2.8v20A44.26,44.26,0,0,0,711.21,118a64.36,64.36,0,0,0-11.71-1.17,56.19,56.19,0,0,0-12.34,1.08q-4.59,1.08-4.59,4.68,0,4,4.95,5.59T702.93,133q10.26,3.08,16,6.67a20.74,20.74,0,0,1,8.11,8.56,28.81,28.81,0,0,1,2.34,12.34Q729.41,186.52,691.58,186.52Z"/><path class="cls-4" d="M532.43,118.06V97.52H511.36V72.82L487,82v15.5H475v20.54H487V157.7q0,13.32,7.12,21.07t21.89,7.75a61.7,61.7,0,0,0,10.45-.81,42.83,42.83,0,0,0,5.93-1.46V167.32a31.49,31.49,0,0,1-7.73,1q-6.86,0-10.09-2.61t-3.25-9.64v-38Z"/><path class="cls-3" d="M746.07,186.52,784.7,96.88H745.61V73h78.71L775.43,186.52Z"/><path class="cls-4" d="M611.61,97.52v67.35c-.78.45-1.57.89-2.42,1.29a26.61,26.61,0,0,1-11.62,2.53q-8.28,0-12.43-3.88T581,152.29V97.52H556.68v55.31q0,16.57,8.55,25.13t23.87,8.56a48.67,48.67,0,0,0,17.39-2.79,51.32,51.32,0,0,0,5.89-2.69c.41,2.58.83,5.48.83,5.48h22.52v-89Z"/></svg>