<svg id="Layer_1" data-name="Layer 1" xmlns="http://www.w3.org/2000/svg" viewBox="0 0 1000 322.64"><defs><style>.cls-1{fill:#1a1c29;}.cls-2{fill:#034a9a;}.cls-3{fill:#00abd5;}</style></defs><polygon class="cls-1" points="527.39 113.52 527.39 113.51 527.39 113.51 527.39 113.51 527.39 113.52"/><path class="cls-1" d="M773.43,230.54a140.41,140.41,0,0,1-21.55-1.6A84.23,84.23,0,0,1,735.46,225V201.1a83.13,83.13,0,0,0,16.85,4.59,104.16,104.16,0,0,0,17.28,1.6q10.67,0,15-1.28a5.52,5.52,0,0,0,4.37-5.76c0-3.42-2.24-5.9-6.72-7.47s-11.13-3.76-19.94-6.61q-13.87-4.69-21.34-11.31t-7.46-19.62q0-14.51,10.56-22.29t34-7.79a108.25,108.25,0,0,1,17.71,1.39,94.9,94.9,0,0,1,14.07,3.31v23.67a53.16,53.16,0,0,0-13.22-4.16A76.64,76.64,0,0,0,782.81,148a66,66,0,0,0-14.61,1.28c-3.62.85-5.44,2.7-5.44,5.54q0,4.69,5.87,6.62t18.24,5.75q12.15,3.63,19,7.9a24.51,24.51,0,0,1,9.6,10.13q2.77,5.86,2.77,14.61Q818.22,230.54,773.43,230.54Z"/><path class="cls-1" d="M584.44,149.48V125.16H559.51V95.92l-28.8,10.89v18.35h-9.88v24.32h9.88v46.93q0,15.78,8.43,25t25.91,9.17a72.87,72.87,0,0,0,12.37-1,50.73,50.73,0,0,0,7-1.73v-20a36.86,36.86,0,0,1-9.15,1.19q-8.1,0-11.94-3.09t-3.84-11.41v-45Z"/><path class="cls-2" d="M839.28,230.54,885,124.4H838.73V96.07h93.2L874,230.54Z"/><path class="cls-1" d="M678.2,125.16V204.9c-.92.54-1.87,1.06-2.86,1.53a31.59,31.59,0,0,1-13.76,3q-9.83,0-14.72-4.59T642,190V125.16H613.16v65.49q0,19.62,10.13,29.75t28.26,10.14a57.73,57.73,0,0,0,20.59-3.31,62.71,62.71,0,0,0,7-3.18c.49,3,1,6.49,1,6.49h26.66V125.16Z"/><path class="cls-1" d="M436.61,230.75q-65.31,0-65.31-66.73,0-35.91,16.48-51.93t48.83-16q32.34,0,48.82,16T501.91,164Q501.91,230.76,436.61,230.75Zm0-23.32q19,0,27.85-10.65T473.33,164q0-24.54-8.87-34.59t-27.85-10q-19,0-27.86,10T399.88,164q0,22.11,8.87,32.76T436.61,207.43Z"/><path class="cls-2" d="M154.31,85.12l-23.52,9.51L146.31,133,73,131.36a126.06,126.06,0,0,0-5,28.46l117.49,2.65Z"/><path class="cls-2" d="M260.88,106.15l-16-19.71-32.2,26.07-20-71.1a126.66,126.66,0,0,0-28.69,3.48l32,113.76Z"/><path class="cls-2" d="M203.92,167.21l69.16,46.65,14.19-21-34.35-23.17,61-39.11A125.09,125.09,0,0,0,302.32,104Z"/><path class="cls-2" d="M173.64,257l24.26,7.42L210,224.81,264.41,271A126.06,126.06,0,0,0,286.25,252L198,177.25Z"/><path class="cls-3" d="M103.3,174.55v25.36h41.43l-28.56,66.27a126.11,126.11,0,0,0,24.62,15.05l45.93-106.68Z"/></svg>