<svg id="Layer_1" data-name="Layer 1" xmlns="http://www.w3.org/2000/svg" viewBox="0 0 248.37 243.03"><defs><style>.cls-1{fill:#03499a;}.cls-2{fill:#00acd6;}</style></defs><path class="cls-1" d="M91.53,53.66,70.59,62.12,84.41,96.33,19.14,94.84a111.55,111.55,0,0,0-4.41,25.34l104.63,2.36Z"/><path class="cls-1" d="M186.44,72.38,172.23,54.83,143.55,78.05,125.77,14.73a112.13,112.13,0,0,0-25.56,3.1l28.5,101.31Z"/><path class="cls-1" d="M135.72,126.76l61.59,41.55,12.63-18.73L179.35,129l54.28-34.84a110.6,110.6,0,0,0-10.29-23.62Z"/><path class="cls-1" d="M108.75,206.74l21.6,6.61,10.79-35.29,48.45,41.11A113,113,0,0,0,209,202.3l-78.57-66.6Z"/><path class="cls-2" d="M46.1,133.29v22.59H83l-25.43,59a112.11,112.11,0,0,0,21.92,13.41l40.9-95Z"/></svg>