<svg id="Layer_1" data-name="Layer 1" xmlns="http://www.w3.org/2000/svg" viewBox="0 0 690.2 601.31"><defs><style>.cls-1{fill:#034b3b;}.cls-2{fill:#f15d22;}.cls-3{fill:#fefefe;}.cls-4{fill:#fcaf17;}.cls-5{fill:#1a1c29;}.cls-6{fill:#00acd6;}.cls-7{fill:#03499a;}.cls-8{fill:#eeedee;}.cls-9{fill:#fff;}.cls-10{fill:#f49ac1;}</style></defs><rect class="cls-1" width="690.2" height="601.31"/><rect class="cls-2" x="593.97" y="65.39" width="96.23" height="96.34"/><polygon class="cls-3" points="448.98 222.52 459.53 208.55 470.32 222.52 448.98 222.52"/><polygon class="cls-3" points="400.88 417.54 411.43 403.56 422.22 417.54 400.88 417.54"/><polygon class="cls-3" points="358.43 153.7 342.01 147.59 352.32 133.25 358.43 153.7"/><polygon class="cls-3" points="288.89 371 278.34 384.98 267.55 371 288.89 371"/><polygon class="cls-3" points="368.93 473.91 382.91 484.46 368.93 495.25 368.93 473.91"/><path class="cls-2" d="M370.52,462.41h-3.18a44.91,44.91,0,0,1-44.86-44.87V181.8A44.62,44.62,0,0,1,326,164.33l6.43,2.72a37.74,37.74,0,0,0-3,14.75V417.54a37.94,37.94,0,0,0,37.89,37.89h3.18a37.94,37.94,0,0,0,37.89-37.89h7A44.92,44.92,0,0,1,370.52,462.41Z"/><path class="cls-2" d="M368.93,512.76a94.26,94.26,0,0,1-94.15-94.15h6.87a87.28,87.28,0,1,0,174.56,0V222.52h6.87V418.61A94.26,94.26,0,0,1,368.93,512.76Z"/><path class="cls-3" d="M434.54,265.56a65.57,65.57,0,1,0-117.1,40.55,55.3,55.3,0,0,1,12.16,34.18v9.34a14.83,14.83,0,0,0,14.83,14.83h49.08a14.83,14.83,0,0,0,14.83-14.83v-9.37a55.24,55.24,0,0,1,12.15-34.14A65.28,65.28,0,0,0,434.54,265.56Z"/><path class="cls-2" d="M385.39,364.46h-41.2v25.28a4.4,4.4,0,0,0,.13,1l1.38,5.52a.88.88,0,0,1,.05.15v18.05a23.18,23.18,0,1,0,46.36,0V397a4.33,4.33,0,0,0,.27-.74l1.38-5.48a4.56,4.56,0,0,0,.13-1V364.46h-8.5ZM368.93,431a16.48,16.48,0,0,1-16.46-16.46V399.35h32.92v15.14A16.47,16.47,0,0,1,368.93,431Z"/><path class="cls-2" d="M408.41,213.2a65.1,65.1,0,0,1,7,6.08V181.8a44.92,44.92,0,0,0-44.87-44.87h-3.18A44.89,44.89,0,0,0,354,139l2.08,6.66a37.85,37.85,0,0,1,11.26-1.7h3.18a37.94,37.94,0,0,1,37.89,37.89Z"/><path class="cls-2" d="M408.41,378h7V313.75a54.53,54.53,0,0,0-7,23.87Z"/><path class="cls-2" d="M368.93,86.58a94.26,94.26,0,0,0-94.15,94.15V371h6.87V180.73a87.28,87.28,0,1,1,174.56,0h6.87A94.25,94.25,0,0,0,368.93,86.58Z"/><path class="cls-2" d="M392.11,204.2V184.84a23.18,23.18,0,0,0-46.36,0v19.42a64.86,64.86,0,0,1,6.72-2.15V184.84a16.46,16.46,0,0,1,32.92,0v17.24A66.4,66.4,0,0,1,392.11,204.2Z"/><path class="cls-2" d="M368.93,111.27a70.23,70.23,0,0,0-70.14,70.14V417.93a70.23,70.23,0,0,0,70.14,70.14v-7a63.23,63.23,0,0,1-63.16-63.16V283.06a66.09,66.09,0,0,1-2.21-22.21,65.07,65.07,0,0,1,2.21-12.78V181.41a63.16,63.16,0,1,1,126.32,0v66.41a65.49,65.49,0,0,1,0,35.49V417.93a63.52,63.52,0,0,1-31,54.39l3.55,6a70.49,70.49,0,0,0,34.45-60.39V181.41A70.22,70.22,0,0,0,368.93,111.27Z"/><rect class="cls-4" x="344.19" y="367.64" width="49.69" height="22.52"/><path class="cls-2" d="M383.65,365.92h-3.34V313.79H357.63v52.13h-3.35V313.79h-6.56a9.22,9.22,0,1,1,0-18.44h.69a9.24,9.24,0,0,1,9.22,9.22v5.88h22.68v-5.88a9.23,9.23,0,0,1,9.22-9.22h.69a9.22,9.22,0,0,1,0,18.44h-6.57Zm0-55.47h6.57a5.88,5.88,0,0,0,0-11.75h-.69a5.88,5.88,0,0,0-5.88,5.87ZM347.72,298.7a5.88,5.88,0,1,0,0,11.75h6.56v-5.88a5.87,5.87,0,0,0-5.87-5.87Z"/><rect class="cls-4" x="368.03" y="222.36" width="2.02" height="61.48"/><rect class="cls-4" x="338.3" y="252.09" width="61.48" height="2.02"/><rect class="cls-4" x="338.3" y="252.09" width="61.48" height="2.02" transform="translate(-70.88 335.08) rotate(-45)"/><rect class="cls-4" x="368.03" y="222.36" width="2.02" height="61.48" transform="translate(-70.88 335.08) rotate(-45)"/><path class="cls-4" d="M340.67,265l-.71-1.88,57.45-21.9.71,1.89Z"/><path class="cls-4" d="M379.05,282.19l-21.9-57.45L359,224c.46,1.18,21.9,57.45,21.9,57.45Z"/><path class="cls-4" d="M396.68,266.59l-56.1-25.14.82-1.84,56.1,25.14Z"/><path class="cls-4" d="M357.39,281.57l-1.84-.83s24.62-55,25.14-56.1l1.84.82Z"/><polygon class="cls-5" points="690.2 161.74 593.97 65.39 690.2 65.39 690.2 161.74"/><polygon class="cls-6" points="593.97 161.74 497.73 65.39 593.97 65.39 593.97 161.74"/><polygon class="cls-6" points="690.2 258.08 593.97 161.74 690.2 161.74 690.2 258.08"/><polygon class="cls-6" points="593.97 258.08 497.73 161.74 593.97 161.74 593.97 258.08"/><rect class="cls-4" x="375.01" y="13.59" width="1.83" height="55.7"/><rect class="cls-4" x="348.07" y="40.52" width="55.7" height="1.83"/><rect class="cls-4" x="348.07" y="40.52" width="55.7" height="1.83" transform="translate(80.8 277.95) rotate(-45)"/><rect class="cls-4" x="375.01" y="13.59" width="1.83" height="55.7" transform="translate(80.8 277.95) rotate(-45)"/><path class="cls-4" d="M350.22,52.21l-.65-1.71,52.05-19.84.65,1.71Z"/><path class="cls-4" d="M385,67.78l-19.84-52,1.71-.65c.4,1.07,19.83,52,19.83,52Z"/><path class="cls-4" d="M401,53.66,350.13,30.88l.75-1.66L401.71,52Z"/><path class="cls-4" d="M365.37,67.22l-1.67-.74,22.77-50.83,1.67.75Z"/><rect class="cls-4" x="375.01" y="530.05" width="1.83" height="55.7"/><rect class="cls-4" x="348.07" y="556.99" width="55.7" height="1.83"/><rect class="cls-4" x="348.07" y="556.99" width="55.7" height="1.83" transform="translate(-284.39 429.22) rotate(-45)"/><rect class="cls-4" x="375.01" y="530.05" width="1.83" height="55.7" transform="translate(-284.39 429.22) rotate(-45)"/><path class="cls-4" d="M350.22,568.67l-.65-1.7,52.05-19.84.65,1.71Z"/><path class="cls-4" d="M385,584.25l-19.84-52,1.71-.65c.4,1.08,19.83,52.05,19.83,52.05Z"/><path class="cls-4" d="M401,570.12l-50.83-22.77.75-1.67,50.83,22.77Z"/><path class="cls-4" d="M365.37,583.69l-1.67-.75,22.77-50.83,1.67.75Z"/><polygon class="cls-5" points="496.62 481.41 510.38 495.32 527.72 495.32 527.72 478.12 513.96 464.21 496.62 481.41"/><rect class="cls-7" x="496.61" y="464.21" width="17.58" height="17.2"/><polygon class="cls-5" points="527.52 539.99 514.19 526.69 496.61 543.89 510.56 557.8 527.52 557.8 527.52 539.99"/><rect class="cls-8" x="496.61" y="526.69" width="17.58" height="17.2"/><polygon class="cls-2" points="496.62 512.64 510.49 526.52 527.99 526.52 527.99 509.37 514.11 495.48 496.62 512.64"/><rect class="cls-8" x="496.61" y="495.38" width="17.49" height="17.22"/><polygon class="cls-2" points="527.52 571.43 514 557.78 496.58 575.04 510.41 589 527.52 589 527.52 571.43"/><rect class="cls-7" x="496.58" y="557.78" width="17.42" height="17.26"/><path class="cls-9" d="M568.48,57.35a23.59,23.59,0,1,1,23.58-23.59A23.6,23.6,0,0,1,568.48,57.35Zm0-45.28a21.7,21.7,0,1,0,21.69,21.69A21.71,21.71,0,0,0,568.48,12.07Z"/><path class="cls-9" d="M568.48,50.23a16.47,16.47,0,1,1,16.46-16.47A16.49,16.49,0,0,1,568.48,50.23Zm0-31a14.58,14.58,0,1,0,14.57,14.57A14.59,14.59,0,0,0,568.48,19.19Z"/><path class="cls-9" d="M568.48,43.32A9.56,9.56,0,1,1,578,33.76,9.56,9.56,0,0,1,568.48,43.32Zm0-17.23a7.68,7.68,0,1,0,7.67,7.67A7.68,7.68,0,0,0,568.48,26.09Z"/><path class="cls-9" d="M523.22,57.35a23.59,23.59,0,1,1,23.57-23.59A23.61,23.61,0,0,1,523.22,57.35Zm0-45.28a21.7,21.7,0,1,0,21.69,21.69A21.71,21.71,0,0,0,523.22,12.07Z"/><path class="cls-9" d="M523.22,50.23a16.47,16.47,0,1,1,16.46-16.47A16.48,16.48,0,0,1,523.22,50.23Zm0-31a14.58,14.58,0,1,0,14.57,14.57A14.59,14.59,0,0,0,523.22,19.19Z"/><path class="cls-9" d="M523.22,43.32a9.56,9.56,0,1,1,9.55-9.56A9.57,9.57,0,0,1,523.22,43.32Zm0-17.23a7.68,7.68,0,1,0,7.67,7.67A7.68,7.68,0,0,0,523.22,26.09Z"/><path class="cls-9" d="M614.69,57.35a23.59,23.59,0,1,1,23.57-23.59A23.61,23.61,0,0,1,614.69,57.35Zm0-45.28a21.7,21.7,0,1,0,21.69,21.69A21.71,21.71,0,0,0,614.69,12.07Z"/><path class="cls-9" d="M614.69,50.23a16.47,16.47,0,1,1,16.46-16.47A16.48,16.48,0,0,1,614.69,50.23Zm0-31a14.58,14.58,0,1,0,14.57,14.57A14.59,14.59,0,0,0,614.69,19.19Z"/><path class="cls-9" d="M614.69,43.32a9.56,9.56,0,1,1,9.55-9.56A9.57,9.57,0,0,1,614.69,43.32Zm0-17.23a7.68,7.68,0,1,0,7.67,7.67A7.68,7.68,0,0,0,614.69,26.09Z"/><path class="cls-9" d="M660.77,58.29a23.59,23.59,0,1,1,23.57-23.58A23.6,23.6,0,0,1,660.77,58.29Zm0-45.28a21.7,21.7,0,1,0,21.69,21.7A21.72,21.72,0,0,0,660.77,13Z"/><path class="cls-9" d="M660.77,51.17a16.47,16.47,0,1,1,16.46-16.46A16.47,16.47,0,0,1,660.77,51.17Zm0-31a14.58,14.58,0,1,0,14.57,14.58A14.59,14.59,0,0,0,660.77,20.13Z"/><path class="cls-9" d="M660.77,44.27a9.56,9.56,0,1,1,9.55-9.56A9.57,9.57,0,0,1,660.77,44.27Zm0-17.24a7.68,7.68,0,1,0,7.67,7.68A7.69,7.69,0,0,0,660.77,27Z"/><rect class="cls-5" x="537.67" y="448.72" width="152.53" height="152.6"/><path class="cls-2" d="M575.36,474.61v49.46a24.73,24.73,0,0,0,0-49.46Z"/><path class="cls-7" d="M550.64,474.61v49.46a24.73,24.73,0,0,0,0-49.46Z"/><path class="cls-7" d="M600.08,474.61v49.46a24.73,24.73,0,0,0,0-49.46Z"/><ellipse class="cls-7" cx="664.57" cy="497.54" rx="12.9" ry="12.9"/><rect class="cls-9" x="550.64" y="562.59" width="12.9" height="29.03"/><rect class="cls-9" x="578.59" y="562.59" width="12.9" height="29.03"/><rect class="cls-9" x="604.38" y="562.59" width="12.9" height="29.03"/><rect class="cls-9" x="537.74" y="533.56" width="12.9" height="29.03"/><rect class="cls-9" x="564.61" y="533.56" width="12.9" height="29.03"/><rect class="cls-9" x="590.41" y="533.56" width="12.9" height="29.03"/><rect class="cls-9" x="618.35" y="533.56" width="12.9" height="29.03"/><rect class="cls-10" x="593.97" y="354.45" width="96.29" height="94.24"/><polygon class="cls-5" points="593.98 380.34 615.34 401.46 642.25 401.46 642.25 375.35 620.89 354.24 593.98 380.34"/><rect class="cls-7" x="593.98" y="354.24" width="27.28" height="26.1"/><polygon class="cls-2" points="690.29 374.42 669.6 354.24 642.32 380.34 663.97 401.46 690.29 401.46 690.29 374.42"/><rect class="cls-8" x="642.32" y="354.24" width="27.28" height="26.1"/><polygon class="cls-2" points="593.98 427.75 615.52 448.83 642.67 448.83 642.67 422.78 621.13 401.71 593.98 427.75"/><rect class="cls-8" x="593.98" y="401.55" width="27.15" height="26.13"/><polygon class="cls-5" points="690.29 422.16 669.32 401.43 642.28 427.63 663.73 448.83 690.29 448.83 690.29 422.16"/><rect class="cls-7" x="642.28" y="401.43" width="27.04" height="26.2"/><rect class="cls-10" x="497.73" y="258" width="96.23" height="96.23"/><rect class="cls-7" x="544.75" y="306.83" width="38.1" height="37.21"/><path class="cls-4" d="M572.9,302.65a33.87,33.87,0,0,1-.26,4.18H544.52v28.4a33.49,33.49,0,0,1-4.51.31,32.9,32.9,0,1,1,32.89-32.89Z"/><path class="cls-6" d="M572.64,306.83a32.92,32.92,0,0,1-28.12,28.4v-28.4Z"/><path class="cls-9" d="M522.25,378.31a3.74,3.74,0,1,1-3.74-3.75A3.73,3.73,0,0,1,522.25,378.31Z"/><path class="cls-9" d="M539.3,378.31a3.74,3.74,0,1,1-3.74-3.75A3.73,3.73,0,0,1,539.3,378.31Z"/><path class="cls-9" d="M556.35,378.31a3.74,3.74,0,1,1-3.74-3.75A3.73,3.73,0,0,1,556.35,378.31Z"/><path class="cls-9" d="M573.41,378.31a3.75,3.75,0,1,1-3.75-3.75A3.74,3.74,0,0,1,573.41,378.31Z"/><path class="cls-9" d="M522,395.16a3.74,3.74,0,1,1-3.74-3.75A3.73,3.73,0,0,1,522,395.16Z"/><path class="cls-9" d="M539.09,395.16a3.74,3.74,0,1,1-3.74-3.75A3.73,3.73,0,0,1,539.09,395.16Z"/><path class="cls-9" d="M556.15,395.16a3.75,3.75,0,1,1-3.75-3.75A3.74,3.74,0,0,1,556.15,395.16Z"/><path class="cls-9" d="M573.2,395.16a3.75,3.75,0,1,1-3.75-3.75A3.74,3.74,0,0,1,573.2,395.16Z"/><path class="cls-9" d="M521.84,412a3.75,3.75,0,1,1-3.75-3.75A3.74,3.74,0,0,1,521.84,412Z"/><path class="cls-9" d="M538.89,412a3.75,3.75,0,1,1-3.75-3.75A3.74,3.74,0,0,1,538.89,412Z"/><path class="cls-9" d="M555.94,412a3.75,3.75,0,1,1-3.74-3.75A3.74,3.74,0,0,1,555.94,412Z"/><path class="cls-9" d="M573,412a3.75,3.75,0,1,1-3.74-3.75A3.74,3.74,0,0,1,573,412Z"/><path class="cls-9" d="M521.63,428.86a3.75,3.75,0,1,1-3.75-3.75A3.74,3.74,0,0,1,521.63,428.86Z"/><path class="cls-9" d="M538.68,428.86a3.75,3.75,0,1,1-3.74-3.75A3.74,3.74,0,0,1,538.68,428.86Z"/><path class="cls-9" d="M555.73,428.86a3.75,3.75,0,1,1-3.74-3.75A3.74,3.74,0,0,1,555.73,428.86Z"/><path class="cls-9" d="M572.78,428.86a3.74,3.74,0,1,1-3.74-3.75A3.73,3.73,0,0,1,572.78,428.86Z"/><path class="cls-10" d="M640.2,334.25a29.68,29.68,0,1,1,29.67-29.68A29.71,29.71,0,0,1,640.2,334.25Zm0-57.39a27.71,27.71,0,1,0,27.71,27.71A27.75,27.75,0,0,0,640.2,276.86Z"/><path class="cls-10" d="M640.2,334.25a21.87,21.87,0,1,1,21.86-21.87A21.89,21.89,0,0,1,640.2,334.25Zm0-41.77a19.9,19.9,0,1,0,19.9,19.9A19.93,19.93,0,0,0,640.2,292.48Z"/><path class="cls-10" d="M640.2,334.25a14.71,14.71,0,1,1,14.71-14.71A14.73,14.73,0,0,1,640.2,334.25Zm0-27.45a12.74,12.74,0,1,0,12.74,12.74A12.76,12.76,0,0,0,640.2,306.8Z"/><path class="cls-10" d="M640.2,334.25A7.85,7.85,0,1,1,648,326.4,7.86,7.86,0,0,1,640.2,334.25Zm0-13.73a5.88,5.88,0,1,0,5.88,5.88A5.88,5.88,0,0,0,640.2,320.52Z"/></svg>