<svg id="Layer_1" data-name="Layer 1" xmlns="http://www.w3.org/2000/svg" viewBox="0 0 627.29 591.85"><defs><style>.cls-1{fill:#f7b11b;}.cls-2{fill:#fefefe;}.cls-3{fill:#f15d22;}.cls-4{fill:#fcaf17;}.cls-5{fill:#fff;}.cls-6{fill:#03499a;}.cls-7{fill:#00acd6;}</style></defs><rect class="cls-1" width="627.29" height="591.85"/><polygon class="cls-2" points="452.7 224.05 463.25 210.07 474.05 224.05 452.7 224.05"/><polygon class="cls-2" points="404.61 419.06 415.16 405.09 425.95 419.06 404.61 419.06"/><polygon class="cls-2" points="362.15 155.22 345.74 149.11 356.05 134.77 362.15 155.22"/><polygon class="cls-2" points="292.62 372.53 282.06 386.5 271.27 372.53 292.62 372.53"/><polygon class="cls-2" points="372.66 475.43 386.64 485.98 372.66 496.77 372.66 475.43"/><path class="cls-3" d="M374.25,463.93h-3.18a44.92,44.92,0,0,1-44.87-44.87V183.32a44.58,44.58,0,0,1,3.53-17.46l6.43,2.72a37.55,37.55,0,0,0-3,14.74V419.06A37.94,37.94,0,0,0,371.07,457h3.18a37.94,37.94,0,0,0,37.89-37.89h7A44.91,44.91,0,0,1,374.25,463.93Z"/><path class="cls-3" d="M372.66,514.28a94.25,94.25,0,0,1-94.15-94.15h6.87a87.28,87.28,0,1,0,174.56,0V224.05h6.87V420.13A94.26,94.26,0,0,1,372.66,514.28Z"/><path class="cls-2" d="M438.26,267.09a65.57,65.57,0,1,0-117.1,40.54,55.32,55.32,0,0,1,12.17,34.19v9.33A14.82,14.82,0,0,0,348.15,366h49.09a14.82,14.82,0,0,0,14.82-14.83v-9.36a55.22,55.22,0,0,1,12.16-34.15A65.31,65.31,0,0,0,438.26,267.09Z"/><path class="cls-3" d="M389.12,366h-41.2v25.28a4.06,4.06,0,0,0,.13,1l1.38,5.51c0,.06,0,.1.05.16v18a23.18,23.18,0,0,0,46.36,0V398.56a4.66,4.66,0,0,0,.27-.74l1.37-5.49a3.93,3.93,0,0,0,.13-1V366h-8.49Zm-16.46,66.5A16.48,16.48,0,0,1,356.2,416V400.87h32.92V416A16.49,16.49,0,0,1,372.66,432.48Z"/><path class="cls-3" d="M412.14,214.72a66.27,66.27,0,0,1,7,6.08V183.32a44.91,44.91,0,0,0-44.86-44.86h-3.18a44.79,44.79,0,0,0-13.34,2l2.07,6.67a37.92,37.92,0,0,1,11.27-1.71h3.18a37.94,37.94,0,0,1,37.89,37.89Z"/><path class="cls-3" d="M412.14,379.51h7V315.27a54.39,54.39,0,0,0-7,23.88Z"/><path class="cls-3" d="M372.66,88.1a94.26,94.26,0,0,0-94.15,94.15V372.53h6.87V182.25a87.28,87.28,0,1,1,174.56,0h6.87A94.26,94.26,0,0,0,372.66,88.1Z"/><path class="cls-3" d="M395.84,205.72V186.37a23.18,23.18,0,1,0-46.36,0v19.41a64.05,64.05,0,0,1,6.72-2.14V186.37a16.46,16.46,0,1,1,32.92,0V203.6A69,69,0,0,1,395.84,205.72Z"/><path class="cls-3" d="M372.66,112.8a70.21,70.21,0,0,0-70.14,70.13V419.45a70.21,70.21,0,0,0,70.14,70.14v-7a63.23,63.23,0,0,1-63.16-63.16V284.58a65.77,65.77,0,0,1-2.21-22.2,64.81,64.81,0,0,1,2.21-12.78V182.93a63.16,63.16,0,1,1,126.32,0v66.42a65.71,65.71,0,0,1,0,35.48V419.45a63.48,63.48,0,0,1-31,54.39l3.56,6a70.49,70.49,0,0,0,34.45-60.39V182.93A70.22,70.22,0,0,0,372.66,112.8Z"/><rect class="cls-4" x="347.92" y="369.17" width="49.69" height="22.52"/><path class="cls-3" d="M387.38,367.45H384V315.32H361.36v52.13H358V315.32h-6.56a9.22,9.22,0,1,1,0-18.44h.68a9.23,9.23,0,0,1,9.23,9.22V312H384V306.1a9.23,9.23,0,0,1,9.23-9.22h.68a9.22,9.22,0,1,1,0,18.44h-6.56Zm0-55.48h6.56a5.88,5.88,0,1,0,0-11.75h-.68a5.88,5.88,0,0,0-5.88,5.88Zm-35.93-11.75a5.88,5.88,0,1,0,0,11.75H358V306.1a5.88,5.88,0,0,0-5.88-5.88Z"/><rect class="cls-4" x="371.76" y="223.89" width="2.02" height="61.48"/><rect class="cls-4" x="342.03" y="253.62" width="61.48" height="2.02"/><rect class="cls-4" x="342.03" y="253.62" width="61.48" height="2.02" transform="translate(-70.87 338.16) rotate(-45)"/><rect class="cls-4" x="371.76" y="223.89" width="2.02" height="61.48" transform="translate(-70.87 338.16) rotate(-45)"/><path class="cls-4" d="M344.4,266.52l-.72-1.89,57.45-21.89.72,1.88Z"/><path class="cls-4" d="M382.77,283.71l-21.89-57.45,1.88-.72L384.66,283Z"/><path class="cls-4" d="M400.41,268.12,344.3,243l.83-1.84,56.1,25.14Z"/><path class="cls-4" d="M361.12,283.09l-1.84-.82,25.14-56.11,1.84.83C385.74,228.14,361.12,283.09,361.12,283.09Z"/><path class="cls-5" d="M512.23,119.29a6.49,6.49,0,1,1-6.49-6.49A6.5,6.5,0,0,1,512.23,119.29Z"/><path class="cls-5" d="M541.8,119.29a6.49,6.49,0,1,1-6.49-6.49A6.49,6.49,0,0,1,541.8,119.29Z"/><path class="cls-5" d="M571.38,119.29a6.5,6.5,0,1,1-6.49-6.49A6.5,6.5,0,0,1,571.38,119.29Z"/><path class="cls-5" d="M601,119.29a6.49,6.49,0,1,1-6.49-6.49A6.5,6.5,0,0,1,601,119.29Z"/><path class="cls-5" d="M511.87,148.52a6.49,6.49,0,1,1-6.49-6.5A6.5,6.5,0,0,1,511.87,148.52Z"/><path class="cls-5" d="M541.44,148.52A6.49,6.49,0,1,1,535,142,6.49,6.49,0,0,1,541.44,148.52Z"/><path class="cls-5" d="M571,148.52a6.5,6.5,0,1,1-6.49-6.5A6.5,6.5,0,0,1,571,148.52Z"/><path class="cls-5" d="M600.59,148.52a6.49,6.49,0,1,1-6.49-6.5A6.5,6.5,0,0,1,600.59,148.52Z"/><path class="cls-5" d="M511.51,177.74a6.5,6.5,0,1,1-6.49-6.49A6.5,6.5,0,0,1,511.51,177.74Z"/><path class="cls-5" d="M541.08,177.74a6.49,6.49,0,1,1-6.49-6.49A6.49,6.49,0,0,1,541.08,177.74Z"/><path class="cls-5" d="M570.66,177.74a6.5,6.5,0,1,1-6.5-6.49A6.5,6.5,0,0,1,570.66,177.74Z"/><path class="cls-5" d="M600.23,177.74a6.49,6.49,0,1,1-6.49-6.49A6.5,6.5,0,0,1,600.23,177.74Z"/><path class="cls-5" d="M511.15,207a6.5,6.5,0,1,1-6.49-6.5A6.5,6.5,0,0,1,511.15,207Z"/><path class="cls-5" d="M540.72,207a6.49,6.49,0,1,1-6.49-6.5A6.49,6.49,0,0,1,540.72,207Z"/><path class="cls-5" d="M570.3,207a6.5,6.5,0,1,1-6.5-6.5A6.5,6.5,0,0,1,570.3,207Z"/><path class="cls-5" d="M599.87,207a6.49,6.49,0,1,1-6.49-6.5A6.5,6.5,0,0,1,599.87,207Z"/><path class="cls-3" d="M556.09,310.56q0-33.15,0-66.32a34.21,34.21,0,0,1,0-3.51c.33-3.19,2.64-5.14,6-5.11a5.51,5.51,0,0,1,5.87,5.22c.1,1,0,2,0,3.07V377.42c0,.88,0,1.76,0,2.64-.23,3.59-2.41,5.89-5.79,5.88-3.08,0-6.25-1.95-6.13-6,0-1,0-2.05,0-3.07Z"/><path class="cls-2" d="M529,379.12q0-27,0-54c0-1.72-.42-3.56.77-5.09,1.49-1.91,3.25-3.45,5.89-3.07a6.32,6.32,0,0,1,5.58,5.39,22.66,22.66,0,0,1,.07,3.5V432.53c0,1.89.19,3.8-.84,5.56a6.63,6.63,0,0,1-6.68,3.23,6.11,6.11,0,0,1-4.74-5.58c-.12-1.3-.07-2.63-.07-3.94Q529,405.46,529,379.12Z"/><path class="cls-2" d="M501.76,289.45v-44.8c0-1.17-.05-2.35.06-3.51a6,6,0,0,1,6.06-5.73,6.19,6.19,0,0,1,6.26,5.57,23.23,23.23,0,0,1,0,2.64V335.4c0,.44,0,.88,0,1.32-.12,4.21-2.61,6.87-6.34,6.8s-6-2.57-6-6.64c-.08-11.71,0-23.42,0-35.14Z"/><path class="cls-6" d="M528.65,268.42c0-7.89,0-15.79,0-23.68a21.84,21.84,0,0,1,.36-4.35,5.94,5.94,0,0,1,6.25-4.94,6.28,6.28,0,0,1,5.89,5,18.52,18.52,0,0,1,.11,3.5q0,24.35,0,48.68a18.34,18.34,0,0,1-.06,3.06,6.24,6.24,0,0,1-6.06,5.28c-3.32.06-5.37-1.64-6.2-5a17.28,17.28,0,0,1-.3-4.36Q528.65,280.05,528.65,268.42Z"/><path class="cls-3" d="M582.83,327.23c0-8,0-16.09,0-24.13,0-2.84.79-5.18,3.43-6.59a6,6,0,0,1,8.62,3.24,17.25,17.25,0,0,1,.75,5.61q-.08,22.38,0,44.75a17.79,17.79,0,0,1-.56,4.77,6.07,6.07,0,0,1-6,4.83,6.49,6.49,0,0,1-6.15-5.29,19.4,19.4,0,0,1-.1-3.5Q582.82,339.07,582.83,327.23Z"/><path class="cls-6" d="M568.09,434.44v24.1c0,.88,0,1.75,0,2.63-.18,3.73-2.53,6.35-5.78,6.48a6.12,6.12,0,0,1-6.26-6.41q-.1-26.52,0-53c0-4.08,2.43-6.37,6.2-6.27,3.56.09,5.78,2.31,5.82,6.2C568.15,416.91,568.09,425.67,568.09,434.44Z"/><path class="cls-7" d="M595,257.39c0,5.26.05,10.52,0,15.78,0,4.17-1.89,6.39-5.36,6.62a6.49,6.49,0,0,1-6.87-6.41c-.14-10.37-.1-20.74,0-31.12,0-2.77,2.38-6,4.56-6.32,2.45-.34,4.91-.42,6.73,2a5.55,5.55,0,0,1,1,3.69Z"/><path class="cls-2" d="M582.83,391.57c0-3.07-.06-6.15,0-9.22.1-3.94,2.52-6.64,6-6.77,3.67-.15,6.39,2.07,6.54,6.14.26,6.57.25,13.17,0,19.74a6.09,6.09,0,0,1-6.53,6.19c-3.46-.18-5.82-2.84-5.93-6.85C582.76,397.72,582.83,394.65,582.83,391.57Z"/></svg>