<svg id="Layer_1" data-name="Layer 1" xmlns="http://www.w3.org/2000/svg" viewBox="0 0 301.87 302.68"><defs><style>.cls-1{fill:#f7b11d;}.cls-2{fill:#eeedee;}.cls-3{fill:#fff;}.cls-4{fill:#0058a2;}.cls-5{fill:#b1752a;}.cls-6{fill:#fefefe;}.cls-7{fill:#00adcf;}.cls-8{fill:#2a2828;}.cls-9{fill:#f15d22;}.cls-10{fill:#fff9f4;}</style></defs><rect class="cls-1" width="301.87" height="302.68"/><polygon class="cls-2" points="258.85 147.21 182.05 302.68 223.33 302.68 302 139.28 302 112.27 109.74 112.27 109.74 146.26 258.85 146.26 258.85 147.21"/><path class="cls-3" d="M19.74,31.74a5.39,5.39,0,1,1,5.38-5.38A5.39,5.39,0,0,1,19.74,31.74Zm0-9.4a4,4,0,1,0,4,4A4,4,0,0,0,19.74,22.34Z"/><path class="cls-3" d="M41.14,31.74a5.39,5.39,0,1,1,5.38-5.38A5.39,5.39,0,0,1,41.14,31.74Zm0-9.4a4,4,0,1,0,4,4A4,4,0,0,0,41.14,22.34Z"/><path class="cls-3" d="M62.54,31.74a5.39,5.39,0,1,1,5.38-5.38A5.39,5.39,0,0,1,62.54,31.74Zm0-9.4a4,4,0,1,0,4,4A4,4,0,0,0,62.54,22.34Z"/><path class="cls-3" d="M83.93,31.74a5.39,5.39,0,1,1,5.38-5.38A5.39,5.39,0,0,1,83.93,31.74Zm0-9.4a4,4,0,1,0,4,4A4,4,0,0,0,83.93,22.34Z"/><path class="cls-3" d="M19.48,52.88a5.38,5.38,0,1,1,5.38-5.38A5.38,5.38,0,0,1,19.48,52.88Zm0-9.4a4,4,0,1,0,4,4A4,4,0,0,0,19.48,43.48Z"/><path class="cls-3" d="M40.88,52.88a5.38,5.38,0,1,1,5.38-5.38A5.38,5.38,0,0,1,40.88,52.88Zm0-9.4a4,4,0,1,0,4,4A4,4,0,0,0,40.88,43.48Z"/><path class="cls-3" d="M62.27,52.88a5.38,5.38,0,1,1,5.38-5.38A5.39,5.39,0,0,1,62.27,52.88Zm0-9.4a4,4,0,1,0,4,4A4,4,0,0,0,62.27,43.48Z"/><path class="cls-3" d="M83.67,52.88a5.38,5.38,0,1,1,5.38-5.38A5.38,5.38,0,0,1,83.67,52.88Zm0-9.4a4,4,0,1,0,4,4A4,4,0,0,0,83.67,43.48Z"/><path class="cls-3" d="M19.22,74a5.39,5.39,0,1,1,5.38-5.39A5.39,5.39,0,0,1,19.22,74Zm0-9.4a4,4,0,1,0,4,4A4,4,0,0,0,19.22,64.63Z"/><path class="cls-3" d="M40.62,74A5.39,5.39,0,1,1,46,68.64,5.39,5.39,0,0,1,40.62,74Zm0-9.4a4,4,0,1,0,4,4A4,4,0,0,0,40.62,64.63Z"/><path class="cls-3" d="M62,74a5.39,5.39,0,1,1,5.38-5.39A5.4,5.4,0,0,1,62,74Zm0-9.4a4,4,0,1,0,4,4A4,4,0,0,0,62,64.63Z"/><path class="cls-3" d="M83.41,74a5.39,5.39,0,1,1,5.38-5.39A5.39,5.39,0,0,1,83.41,74Zm0-9.4a4,4,0,1,0,4,4A4,4,0,0,0,83.41,64.63Z"/><path class="cls-3" d="M19,95.17a5.39,5.39,0,1,1,5.38-5.38A5.38,5.38,0,0,1,19,95.17Zm0-9.4a4,4,0,1,0,4,4A4,4,0,0,0,19,85.77Z"/><path class="cls-3" d="M40.36,95.17a5.39,5.39,0,1,1,5.38-5.38A5.38,5.38,0,0,1,40.36,95.17Zm0-9.4a4,4,0,1,0,4,4A4,4,0,0,0,40.36,85.77Z"/><path class="cls-3" d="M61.75,95.17a5.39,5.39,0,1,1,5.38-5.38A5.39,5.39,0,0,1,61.75,95.17Zm0-9.4a4,4,0,1,0,4,4A4,4,0,0,0,61.75,85.77Z"/><path class="cls-3" d="M83.15,95.17a5.39,5.39,0,1,1,5.38-5.38A5.38,5.38,0,0,1,83.15,95.17Zm0-9.4a4,4,0,1,0,4,4A4,4,0,0,0,83.15,85.77Z"/><path class="cls-4" d="M53.68,171.63V120.85a26.78,26.78,0,0,1,0-2.69,4.22,4.22,0,0,1,4.56-3.92,4.23,4.23,0,0,1,4.5,4,23,23,0,0,1,0,2.35V222.82c0,.67,0,1.35,0,2-.18,2.75-1.84,4.51-4.43,4.5-2.36,0-4.79-1.49-4.69-4.58,0-.79,0-1.57,0-2.36Z"/><path class="cls-5" d="M32.91,224.12q0-20.67,0-41.34c0-1.31-.32-2.73.59-3.9,1.14-1.46,2.49-2.63,4.51-2.34a4.84,4.84,0,0,1,4.28,4.12,18.42,18.42,0,0,1,0,2.68V265c0,1.45.15,2.9-.64,4.25a5.08,5.08,0,0,1-5.12,2.48A4.68,4.68,0,0,1,33,267.48c-.09-1,0-2,0-3Q32.9,244.29,32.91,224.12Z"/><path class="cls-6" d="M12.07,155.46q0-17.15,0-34.3c0-.9,0-1.8,0-2.69a4.63,4.63,0,0,1,4.64-4.39,4.73,4.73,0,0,1,4.79,4.27,17,17,0,0,1,0,2v70.28c0,.33,0,.67,0,1-.1,3.22-2,5.25-4.86,5.2s-4.6-2-4.61-5.08c-.06-9,0-17.94,0-26.9Z"/><path class="cls-7" d="M12.15,250.34c0-12,.08-24-.05-35.94,0-3.19,2-5.49,5.46-5.11a4.26,4.26,0,0,1,4,3.83,15,15,0,0,1,0,2q0,35.26,0,70.53c0,2.37-.32,4.55-2.7,5.63a4.66,4.66,0,0,1-6.7-3.68,16.6,16.6,0,0,1,0-2.34Q12.15,267.8,12.15,250.34Z"/><path class="cls-8" d="M32.67,139.36c0-6,0-12.09,0-18.13A16.89,16.89,0,0,1,33,117.9a4.53,4.53,0,0,1,4.78-3.79A4.82,4.82,0,0,1,42.25,118a14,14,0,0,1,.09,2.67V157.9a14,14,0,0,1-.05,2.34,4.77,4.77,0,0,1-4.64,4c-2.54,0-4.11-1.25-4.75-3.79a13.35,13.35,0,0,1-.23-3.33C32.66,151.23,32.67,145.29,32.67,139.36Z"/><path class="cls-9" d="M74.15,184.39c0-6.16,0-12.32,0-18.48,0-2.17.6-4,2.62-5a4.55,4.55,0,0,1,6.6,2.48,12.85,12.85,0,0,1,.57,4.3q0,17.13,0,34.26a13.56,13.56,0,0,1-.43,3.65,4.65,4.65,0,0,1-4.56,3.7,5,5,0,0,1-4.71-4,15,15,0,0,1-.08-2.68Q74.13,193.46,74.15,184.39Z"/><path class="cls-8" d="M62.87,266.48v18.45c0,.67,0,1.34,0,2-.14,2.86-1.93,4.87-4.42,5a4.67,4.67,0,0,1-4.79-4.9q-.09-20.31,0-40.6c0-3.13,1.86-4.89,4.75-4.81,2.73.07,4.43,1.77,4.46,4.75C62.91,253.05,62.87,259.77,62.87,266.48Z"/><path class="cls-7" d="M83.49,130.91c0,4,0,8.06,0,12.08,0,3.2-1.45,4.9-4.11,5.07a5,5,0,0,1-5.26-4.9c-.1-7.94-.07-15.89,0-23.83,0-2.12,1.82-4.61,3.49-4.84,1.87-.26,3.76-.32,5.15,1.52a4.24,4.24,0,0,1,.75,2.82Z"/><path class="cls-6" d="M74.15,233.66c0-2.36-.05-4.71,0-7.07.07-3,1.93-5.08,4.56-5.18a4.53,4.53,0,0,1,5,4.7c.19,5,.19,10.09,0,15.12a4.66,4.66,0,0,1-5,4.74c-2.65-.14-4.46-2.18-4.54-5.25C74.1,238.37,74.15,236,74.15,233.66Z"/><circle class="cls-10" cx="161.59" cy="56.19" r="33.85"/><path class="cls-4" d="M127.74,56.19c0,.67.05,1.33.09,2h67.51c0-.66.1-1.32.1-2a33.85,33.85,0,1,0-67.7,0Z"/><path class="cls-10" d="M164.69,246.85a1.46,1.46,0,0,1-1.46-1.46v-79.1a1.46,1.46,0,0,1,2.92,0v79.1A1.47,1.47,0,0,1,164.69,246.85Z"/><path class="cls-10" d="M204.22,207.3H125.16a1.46,1.46,0,1,1,0-2.92h79.06a1.46,1.46,0,0,1,0,2.92Z"/><path class="cls-10" d="M136.74,235.26a1.45,1.45,0,0,1-1-2.48l55.9-55.93,2.06,2.06-55.9,55.93A1.48,1.48,0,0,1,136.74,235.26Z"/><path class="cls-10" d="M191.61,234.84s-54.75-54.78-55.91-55.93a1.48,1.48,0,0,1,0-2.07,1.45,1.45,0,0,1,2.06,0l55.9,55.93Z"/></svg>