<svg id="Layer_1" data-name="Layer 1" xmlns="http://www.w3.org/2000/svg" viewBox="0 0 282.72 283.47"><defs><style>.cls-1{fill:#2a2828;}.cls-2{fill:#0058a2;}.cls-3{fill:#00adcf;}</style></defs><path class="cls-1" d="M188.19,143.8a17.81,17.81,0,0,0-25.32-25.06Z"/><path class="cls-1" d="M145.73,57.84H59.09L91.52,90.26h54.21a74.17,74.17,0,0,1,55.43,123.45l-.51.57,22.94,22.94.57-.62A106.57,106.57,0,0,0,145.73,57.84Z"/><polygon class="cls-1" points="45.64 57.84 15.53 57.84 57.48 90.03 57.72 90.27 78.07 90.27 45.64 57.84"/><path class="cls-1" d="M99.76,147.53a44.8,44.8,0,0,1,9.3-25.43L86.38,99.43a76.53,76.53,0,0,0-18.54,48.1Z"/><path class="cls-2" d="M100.14,155.59H68.05a76.88,76.88,0,0,0,38.11,60.48l16-27.65A45,45,0,0,1,100.14,155.59Z"/><path class="cls-3" d="M172.12,185.16a45,45,0,0,1-42.67,6.69l-16.11,27.9a76.86,76.86,0,0,0,81.46-11.91Z"/></svg>