<svg id="Layer_1" data-name="Layer 1" xmlns="http://www.w3.org/2000/svg" viewBox="0 0 301.87 302.68"><defs><style>.cls-1{fill:#f15d22;}.cls-2{fill:#fefefe;}.cls-3{fill:#161515;}.cls-4{fill:#f7b11d;}.cls-5{fill:none;stroke:#121212;stroke-miterlimit:10;stroke-width:2.36px;}</style></defs><rect class="cls-1" width="301.87" height="302.68"/><path class="cls-2" d="M189.42,119.89a67.77,67.77,0,0,1,2.27,9,37.9,37.9,0,0,1-1.69,17.4,5.46,5.46,0,0,0-.58,2l-3.56,7.36a95.07,95.07,0,0,1-7.9,11.21,9.38,9.38,0,0,0-2.29,5.61,65.05,65.05,0,0,0-.11,6.84,5.3,5.3,0,0,1-1.14,3.57,6.34,6.34,0,0,1-4.27,1.08c-.71-.51-1.52-.25-2.28-.26-2.91,0-5.81,0-8.76,0V158.27c1.54,0,3,.1,4.38,0a5.74,5.74,0,0,0-.28-11.47c-3.13,0-5.44,2.5-5.48,5.88,0,1.41,0,2.82,0,4.27h-8.67c0-1.15,0-2.2,0-3.26a10,10,0,0,0-.26-2.55,5.47,5.47,0,0,0-10.48-.77,5.68,5.68,0,0,0,5.34,7.92c1.34,0,2.67,0,4.06,0v25.47c-3,0-5.9,0-8.8,0-.76,0-1.57-.3-2.27.24a7.14,7.14,0,0,1-4.27-.91,5.44,5.44,0,0,1-1.29-3.94c.09-2,.1-4,0-6a9.15,9.15,0,0,0-2.5-6.36,131.8,131.8,0,0,1-7.71-10.92l-3.49-7.23c-.73-2.87-1.84-5.64-2.26-8.61a38.61,38.61,0,0,1,1.93-19.29c.15-.4.43-.75.33-1.21l3.49-6.23a56.63,56.63,0,0,1,7.7-8.16,26.12,26.12,0,0,0,3.75-2.6l7.86-3.81a22.73,22.73,0,0,0,3.8-1,38.91,38.91,0,0,1,18.85,0,17,17,0,0,0,3.5,1c2.74,1.19,5.45,2.45,8.08,3.88a24.93,24.93,0,0,0,3.7,2.57,57.57,57.57,0,0,1,7.74,8.25Z"/><path class="cls-3" d="M200.28,104.67c0,2.86,0,5.71,0,8.57,0,42.76-.11,85.52,0,128.27.07,20.53-14.37,40.45-36.2,45.37-15.44,3.48-29.54.06-41.67-10.38a46,46,0,0,1-15.18-25.89,42.24,42.24,0,0,1-1-8.91q0-19.41,0-38.82a3.32,3.32,0,0,1,.22-1.8,6.93,6.93,0,0,1,3.17,0,3.7,3.7,0,0,1,.32,2.39c0,12.16,0,24.31,0,36.47a42.62,42.62,0,0,0,2.56,15.71c5.92,15.28,16.84,24.78,32.94,28,21.95,4.42,44.91-9.56,50.32-33.48a42.21,42.21,0,0,0,1-9.34q0-66.81,0-133.63c0-.86,0-1.71,0-2.57A9,9,0,0,1,200.28,104.67Z"/><path class="cls-3" d="M106.25,188.44q0-59.76,0-119.5a46.94,46.94,0,0,1,33-44.94c15.84-4.77,30.47-2.05,43.52,8.18,9.12,7.14,14.59,16.63,16.88,28a32.29,32.29,0,0,1,.64,6.59c0,7.94,0,15.88,0,23.82a2,2,0,0,1-.31,1.53h-2.88c-.54-.61-.28-1.36-.29-2,0-6.86,0-13.73,0-20.59A42.88,42.88,0,0,0,187.7,42.4a41.8,41.8,0,0,0-27-16.25c-15.9-2.58-29.26,2.4-40,14.23a41.17,41.17,0,0,0-10.25,22.17,53.65,53.65,0,0,0-.43,7.9q0,57.6,0,115.2,0,1.4,0,2.79A9.8,9.8,0,0,1,106.25,188.44Z"/><path class="cls-3" d="M117.39,148.67l3.49,7.23c0,.72-.06,1.43-.06,2.14q0,40,0,80a34.26,34.26,0,0,0,.86,7.42,32.49,32.49,0,0,0,58.17,11.62c4.43-6,6.12-12.95,6.13-20.31q.06-39.47,0-78.93c0-.72-.07-1.43-.11-2.14l3.56-7.36c0,.71.05,1.42.05,2.14q0,44,0,87.93a36,36,0,0,1-33.3,35.86c-12.06.86-22.12-3.34-30.07-12.29a34,34,0,0,1-8.78-23.25q0-43.74,0-87.5C117.32,150.39,117.37,149.53,117.39,148.67Z"/><path class="cls-3" d="M120.88,113.33q-1.74,3.12-3.49,6.23c0-.78-.07-1.57-.07-2.35,0-15.37.09-30.74,0-46.1a35.81,35.81,0,0,1,23.26-33.25c12.52-4.5,24.35-2.84,34.93,5.26a34.67,34.67,0,0,1,13.63,23.41,39.79,39.79,0,0,1,.36,5.55v45.24c0,.86,0,1.72-.05,2.57l-3.56-6.46c0-.57.11-1.14.11-1.71q0-19.39,0-38.79a37.44,37.44,0,0,0-.45-6.17,31.82,31.82,0,0,0-10.68-19.41c-8.1-7-17.4-9.58-28-7.52a32.57,32.57,0,0,0-26,31.93q0,15.21,0,30.43C120.82,105.9,120.86,109.61,120.88,113.33Z"/><path class="cls-3" d="M178,166.92c.49.64.24,1.38.24,2.07q0,33.67,0,67.36a24.77,24.77,0,0,1-20.56,24.82,23.75,23.75,0,0,1-17-3.12c-.53-.32-1.18-.55-1.48-1.28.16-.26.32-.58.51-.87.4-.59.82-1.16,1.3-1.86a36.28,36.28,0,0,0,6.75,3.07,21.2,21.2,0,0,0,26.4-16.3,20.46,20.46,0,0,0,.39-3.82V184c0-.35,0-.71-.06-1.07a5.3,5.3,0,0,0,1.14-3.57,65.05,65.05,0,0,1,.11-6.84A9.38,9.38,0,0,1,178,166.92Z"/><path class="cls-3" d="M162.84,97.75c0-7.63,0-15.26,0-22.9a9.65,9.65,0,0,0-8.63-9.55,9.53,9.53,0,0,0-10.07,7.19,6.45,6.45,0,0,0-.19,1.69q0,11.76,0,23.54a22.73,22.73,0,0,1-3.8,1c0-8-.13-16,0-24A12.81,12.81,0,0,1,150,62.11a12.94,12.94,0,0,1,16.34,12.22c-.11,8.13,0,16.27,0,24.4A17,17,0,0,1,162.84,97.75Z"/><path class="cls-3" d="M128.58,105.17c0-11.21-.23-22.43.06-33.64.2-7.27,3.6-13.27,9.32-17.78,6.68-5.26,14.23-6.48,22.39-4.36.54.14,1.05.37,1.5.53.24.75-.18,1.24-.39,1.73s-.21,1.13-.77,1.57c-1.51-.18-3-.77-4.52-1a20.57,20.57,0,0,0-18.76,7.08,20,20,0,0,0-5.14,14.1c.11,9.71,0,19.43.06,29.14A26.12,26.12,0,0,1,128.58,105.17Z"/><path class="cls-3" d="M132.38,183.1c0,.71-.08,1.42-.08,2.13q0,25.78,0,51.58a19.67,19.67,0,0,0,1.42,7.7,14.63,14.63,0,0,1-3,2,19.57,19.57,0,0,1-2.11-8.17c-.12-1.56,0-3.14,0-4.71q0-32.14,0-64.28c0-.85,0-1.71.05-2.57a9.15,9.15,0,0,1,2.5,6.36c.1,2,.09,4,0,6A5.44,5.44,0,0,0,132.38,183.1Z"/><path class="cls-3" d="M170.15,184l-.09,2.19c-11.11.17-22.22.09-33.34,0,0-.74-.05-1.49-.07-2.23.7-.54,1.51-.23,2.27-.24,2.9,0,5.81,0,8.8,0V158.28c-1.39,0-2.72,0-4.06,0a5.68,5.68,0,0,1-5.34-7.92,5.47,5.47,0,0,1,10.48.77,10,10,0,0,1,.26,2.55c0,1.06,0,2.11,0,3.26h8.67c0-1.45,0-2.86,0-4.27,0-3.38,2.35-5.86,5.48-5.88a5.74,5.74,0,0,1,.28,11.47c-1.41.12-2.84,0-4.38,0v25.48c2.95,0,5.85,0,8.76,0C168.63,183.77,169.44,183.51,170.15,184Zm-12.53-.35V158.43h-8.46v25.24ZM147.78,157c-.05-2.13.28-4-.25-5.8a4.18,4.18,0,0,0-5.73-2.8,4.33,4.33,0,0,0-2.57,4.89A4.26,4.26,0,0,0,143.1,157C144.57,157.12,146.07,157,147.78,157ZM159,157c2-.12,3.84.3,5.63-.34a4.45,4.45,0,0,0-1.59-8.64,4.26,4.26,0,0,0-4,3.74C158.91,153.48,159,155.17,159,157Z"/><path class="cls-3" d="M172.65,57.52a26.31,26.31,0,0,1,5.59,17.06c-.1,9.42,0,18.84,0,28.25,0,.78-.06,1.57-.09,2.35a24.93,24.93,0,0,1-3.7-2.57c0-10.37.14-20.73,0-31.09a17.88,17.88,0,0,0-4.31-11.15A10.91,10.91,0,0,1,172.65,57.52Z"/><path class="cls-3" d="M170,204.3a33.88,33.88,0,0,1-2.22,3.61,7.62,7.62,0,0,0-1.48,5.17c.07,7.29-.18,14.57.08,21.85.25,6.86-5.7,12.61-11.47,13.24-7.44.83-13.54-4.66-14.44-10.42a23.87,23.87,0,0,1-.35-4c0-7.28,0-14.56,0-21.84a5.81,5.81,0,0,0-1-3.59,19.74,19.74,0,0,1-2.4-4Zm-26,9.06c0,.52-.06.87-.06,1.21,0,7,0,14,0,21a9.37,9.37,0,0,0,8.61,9A9.63,9.63,0,0,0,162.86,235q0-10.19,0-20.36c0-.41.14-.87-.31-1.28Z"/><path class="cls-4" d="M170,204.3l-33.29,0q0-7.53,0-15.07l33.34,0C170.15,194.26,170.21,199.28,170,204.3Z"/><path class="cls-4" d="M170.06,189.24l-33.34,0v-3c11.12.06,22.23.14,33.34,0A12.29,12.29,0,0,1,170.06,189.24Z"/><path class="cls-2" d="M157.62,183.67h-8.46V158.43h8.46Z"/><path class="cls-2" d="M147.78,157c-1.71,0-3.21.11-4.68,0a4.26,4.26,0,0,1-3.87-3.69,4.33,4.33,0,0,1,2.57-4.89,4.18,4.18,0,0,1,5.73,2.8C148.06,153,147.73,154.88,147.78,157Z"/><path class="cls-2" d="M159,157c0-1.87-.09-3.56,0-5.24a4.26,4.26,0,0,1,4-3.74,4.45,4.45,0,0,1,1.59,8.64C162.84,157.34,161,156.92,159,157Z"/><polygon class="cls-2" points="192.37 104.68 198.55 96.49 204.87 104.68 192.37 104.68"/><polygon class="cls-2" points="167.58 63.84 165.53 53.78 175.85 54.46 167.58 63.84"/><polygon class="cls-2" points="114.37 187.42 108.27 195.67 101.87 187.54 114.37 187.42"/><polygon class="cls-2" points="137.24 241.82 136.83 252.07 126.97 248.96 137.24 241.82"/><path class="cls-5" d="M50.34,199.76v71.8"/><path class="cls-5" d="M86.24,235.66H14.44"/><path class="cls-5" d="M75.73,210.27,25,261.05"/><path class="cls-5" d="M75.73,261.05,25,210.27"/><path class="cls-5" d="M83.89,222.87,16.8,248.45"/><path class="cls-5" d="M63.13,269.21s-25.05-65.71-25.57-67.1"/><path class="cls-5" d="M83.11,250.34,17.58,221"/><path class="cls-5" d="M35.66,268.42S64.42,204.25,65,202.9"/><path class="cls-5" d="M253.78,22.91v71.8"/><path class="cls-5" d="M289.69,58.81H217.88"/><path class="cls-5" d="M279.17,33.42,228.4,84.2"/><path class="cls-5" d="M279.17,84.2,228.4,33.42"/><path class="cls-5" d="M287.33,46,220.24,71.6"/><path class="cls-5" d="M266.57,92.36s-25-65.72-25.57-67.1"/><path class="cls-5" d="M286.55,73.49,221,44.13"/><path class="cls-5" d="M239.1,91.57s28.76-64.17,29.36-65.52"/></svg>