<svg id="Layer_1" data-name="Layer 1" xmlns="http://www.w3.org/2000/svg" viewBox="0 0 344.81 327.35"><defs><style>.cls-1{fill:#f7b11d;}.cls-2{fill:#fefefe;}.cls-3{fill:#f15d22;}.cls-4{fill:#fff;}.cls-5{fill:#b1752a;}.cls-6{fill:#00adcf;}.cls-7{fill:#0058a2;}</style></defs><rect class="cls-1" width="344.81" height="327.35"/><path class="cls-2" d="M224.51,121.73a79.07,79.07,0,0,1,2.7,10.46,43.19,43.19,0,0,1-2,20.17,6.2,6.2,0,0,0-.69,2.35l-4.21,8.54a112.21,112.21,0,0,1-9.36,13,10.74,10.74,0,0,0-2.71,6.51,72.32,72.32,0,0,0-.13,7.93,6.09,6.09,0,0,1-1.35,4.13c-1.49,1.2-3.27,1.24-5.06,1.25-.84-.6-1.8-.28-2.7-.29-3.44-.05-6.89,0-10.37,0V166.21c1.82,0,3.51.11,5.18,0a6.64,6.64,0,1,0-6.82-6.47c0,1.63,0,3.27,0,4.95H176.7c0-1.33,0-2.55,0-3.78a11.3,11.3,0,0,0-.31-2.95A6.51,6.51,0,0,0,164,157c-1.83,4.55,1.22,9,6.33,9.19,1.58.06,3.16,0,4.8,0v29.53c-3.54,0-7,0-10.42,0-.9,0-1.86-.34-2.69.28-1.76,0-3.52,0-5.06-1.06a6.2,6.2,0,0,1-1.52-4.56c.1-2.31.11-4.63,0-6.94a10.48,10.48,0,0,0-3-7.36,154.46,154.46,0,0,1-9.14-12.66q-2.06-4.2-4.13-8.38c-.86-3.33-2.18-6.54-2.67-10a43.8,43.8,0,0,1,2.28-22.36c.18-.46.51-.86.4-1.4l4.13-7.23a65.69,65.69,0,0,1,9.12-9.45,32.67,32.67,0,0,0,4.44-3l9.3-4.42A26.68,26.68,0,0,0,170.7,96a47,47,0,0,1,22.33,0,20.49,20.49,0,0,0,4.14,1.14c3.26,1.37,6.47,2.83,9.58,4.49a29.13,29.13,0,0,0,4.38,3,66.85,66.85,0,0,1,9.17,9.56Z"/><path class="cls-3" d="M237.37,104.07c0,3.32,0,6.63,0,10,0,49.56-.13,99.12.05,148.69.09,23.8-17,46.88-42.87,52.59-18.3,4-35,.07-49.36-12a53,53,0,0,1-18-30A48.31,48.31,0,0,1,126,262.93q0-22.52,0-45a3.83,3.83,0,0,1,.26-2.09,8.52,8.52,0,0,1,3.76,0c.65.95.38,1.89.38,2.77,0,14.09.05,28.18,0,42.27a48.15,48.15,0,0,0,3,18.22c7,17.71,19.94,28.72,39,32.49a51.28,51.28,0,0,0,59.6-38.81A48.34,48.34,0,0,0,233.23,262q0-77.46,0-154.91c0-1,0-2,0-3A11.09,11.09,0,0,1,237.37,104.07Z"/><path class="cls-3" d="M126,201.18q0-69.26,0-138.52a54.58,54.58,0,0,1,39-52.1C183.81,5,201.15,8.19,216.6,20c10.81,8.29,17.28,19.29,20,32.42a36.93,36.93,0,0,1,.75,7.64c0,9.2,0,18.41,0,27.61a2.27,2.27,0,0,1-.37,1.77h-3.41c-.64-.7-.33-1.57-.34-2.36,0-8,0-15.91,0-23.87A49.05,49.05,0,0,0,222.48,31.9a49.74,49.74,0,0,0-32-18.84c-18.84-3-34.66,2.78-47.4,16.49A47.33,47.33,0,0,0,131,55.25a59.87,59.87,0,0,0-.51,9.16q0,66.77,0,133.54c0,1.08,0,2.16,0,3.23A11.52,11.52,0,0,1,126,201.18Z"/><path class="cls-3" d="M139.2,155.09q2.07,4.18,4.13,8.38c0,.82-.07,1.65-.07,2.48q0,46.37,0,92.75a38.2,38.2,0,0,0,1,8.59c4.27,19,23.36,32,43.07,28.94a38.31,38.31,0,0,0,25.83-15.47c5.24-7,7.24-15,7.26-23.54q.06-45.75,0-91.5c0-.82-.09-1.65-.13-2.47l4.21-8.54c0,.83.06,1.65.06,2.48q0,51,0,101.93a40.08,40.08,0,0,1-12.64,29.59,41.5,41.5,0,0,1-26.8,12c-14.29,1-26.2-3.87-35.62-14.24a38.91,38.91,0,0,1-10.39-26.95q0-50.71,0-101.43C139.12,157.08,139.18,156.08,139.2,155.09Z"/><path class="cls-3" d="M143.34,114.11q-2.07,3.61-4.13,7.23c0-.91-.09-1.82-.09-2.73,0-17.81.11-35.63,0-53.44-.14-16.75,11.28-32.82,27.54-38.54,14.83-5.22,28.84-3.28,41.38,6.1a40.06,40.06,0,0,1,16.13,27.14,44.81,44.81,0,0,1,.43,6.43v52.45c0,1,0,2-.06,3l-4.21-7.5c0-.66.13-1.32.13-2,0-15,0-30,0-45a43.71,43.71,0,0,0-.52-7.15,36.78,36.78,0,0,0-12.65-22.51c-9.6-8.11-20.62-11.1-33.15-8.71a38,38,0,0,0-30.83,37q0,17.64,0,35.28C143.26,105.51,143.31,109.81,143.34,114.11Z"/><path class="cls-3" d="M210.94,176.24c.58.74.28,1.6.28,2.4q0,39,0,78.08a29.54,29.54,0,0,1-44.52,25.16c-.63-.38-1.41-.64-1.76-1.48.19-.31.37-.68.61-1,.47-.68,1-1.35,1.54-2.16a43.27,43.27,0,0,0,8,3.56c13.87,3.87,28.65-5.05,31.27-18.9a23.51,23.51,0,0,0,.46-4.42q0-30.71,0-61.42c0-.41,0-.82-.06-1.24a6.09,6.09,0,0,0,1.35-4.13,72.32,72.32,0,0,1,.13-7.93A10.74,10.74,0,0,1,210.94,176.24Z"/><path class="cls-3" d="M193,96.06c0-8.85.06-17.7,0-26.55a11.26,11.26,0,0,0-22.15-2.74,7.29,7.29,0,0,0-.23,2l0,27.29a26.68,26.68,0,0,1-4.5,1.21c0-9.27-.15-18.54,0-27.8a14.91,14.91,0,0,1,11.67-14.69c11.56-2.73,19.46,6.35,19.36,14.17-.14,9.43,0,18.86-.06,28.29A20.49,20.49,0,0,1,193,96.06Z"/><path class="cls-3" d="M152.46,104.66c0-13-.28-26,.07-39,.23-8.43,4.26-15.39,11-20.62,7.91-6.1,16.85-7.5,26.51-5,.64.16,1.25.43,1.78.61.29.87-.21,1.44-.46,2s-.25,1.31-.91,1.81c-1.79-.2-3.51-.88-5.35-1.11a24.63,24.63,0,0,0-22.23,8.2,22.82,22.82,0,0,0-6.08,16.34c.13,11.26.06,22.52.07,33.79A32.67,32.67,0,0,1,152.46,104.66Z"/><path class="cls-3" d="M157,195c0,.83-.09,1.65-.09,2.48q0,29.9,0,59.78a22.37,22.37,0,0,0,1.68,8.93,17.18,17.18,0,0,1-3.57,2.37,22.36,22.36,0,0,1-2.49-9.48c-.14-1.81-.06-3.64-.06-5.46V179.1c0-1,0-2,.07-3a10.48,10.48,0,0,1,3,7.36c.11,2.31.1,4.63,0,6.94A6.2,6.2,0,0,0,157,195Z"/><path class="cls-3" d="M201.69,196.06c0,.84-.07,1.69-.11,2.54-13.16.19-26.32.11-39.48,0l-.09-2.59c.83-.62,1.79-.27,2.69-.28,3.44-.05,6.88,0,10.42,0V166.22c-1.64,0-3.22.06-4.8,0-5.11-.2-8.16-4.64-6.33-9.19a6.51,6.51,0,0,1,12.41.9,11.3,11.3,0,0,1,.31,2.95c0,1.23,0,2.45,0,3.78H187c0-1.68,0-3.32,0-4.95a6.52,6.52,0,0,1,6.49-6.81,6.64,6.64,0,0,1,.33,13.28c-1.67.14-3.36,0-5.18,0v29.54c3.48,0,6.93,0,10.37,0C199.89,195.78,200.85,195.46,201.69,196.06Zm-14.84-.41V166.4h-10v29.25Zm-11.66-30.9c-.06-2.47.34-4.62-.29-6.72a5.08,5.08,0,1,0-5.25,6.69C171.39,164.88,173.16,164.75,175.19,164.75Zm13.3,0c2.37-.15,4.54.34,6.67-.39a5.17,5.17,0,0,0,3.39-5.93,5.32,5.32,0,0,0-5.29-4.1,5,5,0,0,0-4.74,4.34C188.37,160.65,188.49,162.62,188.49,164.79Z"/><path class="cls-3" d="M204.65,49.42a30.12,30.12,0,0,1,6.62,19.78c-.11,10.92,0,21.83,0,32.75,0,.9-.07,1.81-.1,2.72a29.13,29.13,0,0,1-4.38-3c0-12,.16-24,0-36a20.5,20.5,0,0,0-5.11-12.92A12.61,12.61,0,0,1,204.65,49.42Z"/><path class="cls-3" d="M201.55,219.57a38.4,38.4,0,0,1-2.64,4.19,8.73,8.73,0,0,0-1.75,6c.09,8.44-.2,16.89.11,25.32.29,8-6.76,14.62-13.6,15.36-8.8.95-16-5.41-17.1-12.09a29.37,29.37,0,0,1-.42-4.67c0-8.44,0-16.88,0-25.32a6.71,6.71,0,0,0-1.21-4.16,22.6,22.6,0,0,1-2.85-4.64Zm-30.81,10.5c0,.61-.07,1-.07,1.41,0,8.12,0,16.24,0,24.35,0,5.43,4.67,10.07,10.2,10.48a11.32,11.32,0,0,0,12.19-11.15q0-11.81,0-23.61c0-.47.17-1-.36-1.48Z"/><path class="cls-1" d="M201.55,219.57l-39.43,0q0-8.73,0-17.47l39.49,0C201.69,207.93,201.76,213.75,201.55,219.57Z"/><path class="cls-1" d="M201.59,202.11l-39.49,0v-3.44c13.16.07,26.32.15,39.48,0A14.22,14.22,0,0,1,201.59,202.11Z"/><path class="cls-2" d="M186.85,195.65h-10V166.4h10Z"/><path class="cls-2" d="M175.19,164.75c-2,0-3.8.13-5.54,0A5.15,5.15,0,1,1,174.9,158C175.53,160.13,175.13,162.28,175.19,164.75Z"/><path class="cls-2" d="M188.49,164.79c0-2.17-.12-4.14,0-6.08a5,5,0,0,1,4.74-4.34,5.32,5.32,0,0,1,5.29,4.1,5.17,5.17,0,0,1-3.39,5.93C193,165.13,190.86,164.64,188.49,164.79Z"/><polygon class="cls-2" points="228 104.09 235.32 94.6 242.81 104.09 228 104.09"/><polygon class="cls-2" points="198.64 56.74 196.22 45.09 208.44 45.88 198.64 56.74"/><polygon class="cls-2" points="135.62 200 128.4 209.56 120.82 200.15 135.62 200"/><polygon class="cls-2" points="162.71 263.06 162.23 274.95 150.55 271.34 162.71 263.06"/><path class="cls-4" d="M265.64,33.22A5.38,5.38,0,1,1,271,27.84,5.39,5.39,0,0,1,265.64,33.22Zm0-9.39a4,4,0,1,0,4,4A4,4,0,0,0,265.64,23.83Z"/><path class="cls-4" d="M287,33.22a5.38,5.38,0,1,1,5.38-5.38A5.38,5.38,0,0,1,287,33.22Zm0-9.39a4,4,0,1,0,4,4A4,4,0,0,0,287,23.83Z"/><path class="cls-4" d="M308.43,33.22a5.38,5.38,0,1,1,5.38-5.38A5.38,5.38,0,0,1,308.43,33.22Zm0-9.39a4,4,0,1,0,4,4A4,4,0,0,0,308.43,23.83Z"/><path class="cls-4" d="M329.82,33.22a5.38,5.38,0,1,1,5.39-5.38A5.39,5.39,0,0,1,329.82,33.22Zm0-9.39a4,4,0,1,0,4,4A4,4,0,0,0,329.82,23.83Z"/><path class="cls-4" d="M265.37,54.37A5.39,5.39,0,1,1,270.76,49,5.39,5.39,0,0,1,265.37,54.37Zm0-9.4a4,4,0,1,0,4,4A4,4,0,0,0,265.37,45Z"/><path class="cls-4" d="M286.77,54.37A5.39,5.39,0,1,1,292.15,49,5.39,5.39,0,0,1,286.77,54.37Zm0-9.4a4,4,0,1,0,4,4A4,4,0,0,0,286.77,45Z"/><path class="cls-4" d="M308.17,54.37A5.39,5.39,0,1,1,313.55,49,5.39,5.39,0,0,1,308.17,54.37Zm0-9.4a4,4,0,1,0,4,4A4,4,0,0,0,308.17,45Z"/><path class="cls-4" d="M329.56,54.37A5.39,5.39,0,1,1,334.94,49,5.39,5.39,0,0,1,329.56,54.37Zm0-9.4a4,4,0,1,0,4,4A4,4,0,0,0,329.56,45Z"/><path class="cls-4" d="M265.11,75.51a5.38,5.38,0,1,1,5.38-5.38A5.39,5.39,0,0,1,265.11,75.51Zm0-9.4a4,4,0,1,0,4,4A4,4,0,0,0,265.11,66.11Z"/><path class="cls-4" d="M286.51,75.51a5.38,5.38,0,1,1,5.38-5.38A5.38,5.38,0,0,1,286.51,75.51Zm0-9.4a4,4,0,1,0,4,4A4,4,0,0,0,286.51,66.11Z"/><path class="cls-4" d="M307.91,75.51a5.38,5.38,0,1,1,5.38-5.38A5.38,5.38,0,0,1,307.91,75.51Zm0-9.4a4,4,0,1,0,4,4A4,4,0,0,0,307.91,66.11Z"/><path class="cls-4" d="M329.3,75.51a5.38,5.38,0,1,1,5.38-5.38A5.38,5.38,0,0,1,329.3,75.51Zm0-9.4a4,4,0,1,0,4,4A4,4,0,0,0,329.3,66.11Z"/><path class="cls-4" d="M264.85,96.66a5.39,5.39,0,1,1,5.38-5.39A5.4,5.4,0,0,1,264.85,96.66Zm0-9.4a4,4,0,1,0,4,4A4,4,0,0,0,264.85,87.26Z"/><path class="cls-4" d="M286.25,96.66a5.39,5.39,0,1,1,5.38-5.39A5.39,5.39,0,0,1,286.25,96.66Zm0-9.4a4,4,0,1,0,4,4A4,4,0,0,0,286.25,87.26Z"/><path class="cls-4" d="M307.64,96.66A5.39,5.39,0,1,1,313,91.27,5.4,5.4,0,0,1,307.64,96.66Zm0-9.4a4,4,0,1,0,4,4A4,4,0,0,0,307.64,87.26Z"/><path class="cls-4" d="M329,96.66a5.39,5.39,0,1,1,5.38-5.39A5.39,5.39,0,0,1,329,96.66Zm0-9.4a4,4,0,1,0,4,4A4,4,0,0,0,329,87.26Z"/><path class="cls-3" d="M300.91,160.87V117a22.37,22.37,0,0,1,0-2.32,4,4,0,0,1,7.83.07,19.6,19.6,0,0,1,0,2V205.1c0,.58,0,1.17,0,1.74-.15,2.38-1.59,3.9-3.83,3.89a3.78,3.78,0,0,1-4-4c0-.67,0-1.35,0-2Z"/><path class="cls-5" d="M283,206.22q0-17.85,0-35.71c0-1.14-.28-2.36.51-3.37,1-1.26,2.15-2.27,3.89-2a4.17,4.17,0,0,1,3.7,3.56,16.26,16.26,0,0,1,0,2.32v70.55a6.87,6.87,0,0,1-.55,3.68,4.41,4.41,0,0,1-4.42,2.14,4.06,4.06,0,0,1-3.14-3.69c-.08-.87,0-1.74,0-2.61Z"/><path class="cls-2" d="M265,146.91V117.28c0-.78,0-1.55,0-2.32a4,4,0,0,1,4-3.79,4.09,4.09,0,0,1,4.14,3.68,14.41,14.41,0,0,1,0,1.74v60.72c0,.29,0,.58,0,.87-.08,2.78-1.73,4.54-4.2,4.49s-4-1.69-4-4.39c-.05-7.74,0-15.49,0-23.24Z"/><path class="cls-6" d="M265,228.87c0-10.35.06-20.69-.05-31,0-2.76,1.73-4.74,4.72-4.42a3.68,3.68,0,0,1,3.44,3.31,12.61,12.61,0,0,1,0,1.74q0,30.47,0,60.92c0,2.05-.27,3.94-2.33,4.86a4,4,0,0,1-5.79-3.17,15.11,15.11,0,0,1,0-2Z"/><path class="cls-7" d="M282.76,133c0-5.22,0-10.44,0-15.66a14.61,14.61,0,0,1,.24-2.88,3.92,3.92,0,0,1,4.13-3.27,4.16,4.16,0,0,1,3.9,3.31,11.93,11.93,0,0,1,.07,2.32q0,16.1,0,32.19a12.47,12.47,0,0,1,0,2,4.12,4.12,0,0,1-4,3.49,3.84,3.84,0,0,1-4.1-3.27,11.68,11.68,0,0,1-.2-2.88C282.75,143.25,282.76,138.13,282.76,133Z"/><path class="cls-3" d="M318.59,171.9c0-5.32,0-10.64,0-16,0-1.88.52-3.43,2.27-4.36a3.93,3.93,0,0,1,5.7,2.14,11,11,0,0,1,.49,3.72q0,14.79,0,29.6a11.51,11.51,0,0,1-.37,3.15,4,4,0,0,1-3.94,3.19,4.28,4.28,0,0,1-4.07-3.49,12.8,12.8,0,0,1-.07-2.32Z"/><path class="cls-7" d="M308.85,242.81v15.95c0,.57,0,1.16,0,1.73-.12,2.47-1.67,4.21-3.82,4.29a4,4,0,0,1-4.14-4.24q-.06-17.54,0-35.07c0-2.71,1.61-4.22,4.1-4.16s3.82,1.53,3.85,4.11C308.88,231.22,308.85,237,308.85,242.81Z"/><path class="cls-6" d="M326.66,125.7c0,3.48,0,7,0,10.44,0,2.76-1.25,4.23-3.54,4.38a4.3,4.3,0,0,1-4.55-4.24c-.09-6.86-.06-13.72,0-20.58,0-1.83,1.57-4,3-4.18,1.63-.23,3.25-.28,4.46,1.31a3.67,3.67,0,0,1,.64,2.43Z"/><path class="cls-2" d="M318.59,214.46c0-2,0-4.07,0-6.1.07-2.61,1.67-4.39,3.95-4.48a3.91,3.91,0,0,1,4.32,4.06q.25,6.52,0,13.06a4,4,0,0,1-4.33,4.1c-2.28-.12-3.85-1.89-3.92-4.54C318.55,218.53,318.59,216.49,318.59,214.46Z"/></svg>