<svg id="Layer_1" data-name="Layer 1" xmlns="http://www.w3.org/2000/svg" viewBox="0 0 301.87 302.68"><defs><style>.cls-1{fill:#00adcf;}.cls-2{fill:#fff9f4;}.cls-3{fill:#2a2828;}.cls-4{fill:#f15d22;}</style></defs><rect class="cls-1" width="301.87" height="302.68"/><path class="cls-2" d="M79,156a2.25,2.25,0,0,1-2.25-2.25V31.83a2.25,2.25,0,0,1,4.5,0v122A2.25,2.25,0,0,1,79,156Z"/><path class="cls-2" d="M140,95.06H18.07a2.25,2.25,0,1,1,0-4.5H140a2.25,2.25,0,0,1,0,4.5Z"/><path class="cls-2" d="M35.92,138.17a2.24,2.24,0,0,1-1.59-3.83l86.2-86.24,3.18,3.18-86.2,86.24A2.22,2.22,0,0,1,35.92,138.17Z"/><path class="cls-2" d="M120.53,137.52,34.33,51.28a2.25,2.25,0,0,1,3.18-3.18l86.2,86.24Z"/><path class="cls-3" d="M59.32,282.37A47.72,47.72,0,1,1,107,234.66,47.76,47.76,0,0,1,59.32,282.37Zm0-91.61a43.9,43.9,0,1,0,43.88,43.9A43.93,43.93,0,0,0,59.32,190.76Z"/><path class="cls-3" d="M59.32,268a33.31,33.31,0,1,1,33.29-33.3A33.34,33.34,0,0,1,59.32,268Zm0-62.8a29.5,29.5,0,1,0,29.48,29.5A29.52,29.52,0,0,0,59.32,205.16Z"/><path class="cls-3" d="M59.32,254a19.34,19.34,0,1,1,19.33-19.33A19.35,19.35,0,0,1,59.32,254Zm0-34.86a15.53,15.53,0,1,0,15.51,15.53A15.54,15.54,0,0,0,59.32,219.13Z"/><path class="cls-3" d="M152.8,282.37a47.72,47.72,0,1,1,47.69-47.71A47.76,47.76,0,0,1,152.8,282.37Zm0-91.61a43.9,43.9,0,1,0,43.87,43.9A43.93,43.93,0,0,0,152.8,190.76Z"/><path class="cls-3" d="M152.8,268a33.31,33.31,0,1,1,33.29-33.3A33.34,33.34,0,0,1,152.8,268Zm0-62.8a29.5,29.5,0,1,0,29.48,29.5A29.52,29.52,0,0,0,152.8,205.16Z"/><path class="cls-3" d="M152.8,254a19.34,19.34,0,1,1,19.33-19.33A19.35,19.35,0,0,1,152.8,254Zm0-34.86a15.53,15.53,0,1,0,15.51,15.53A15.54,15.54,0,0,0,152.8,219.13Z"/><path class="cls-3" d="M246,284.28a47.72,47.72,0,1,1,47.69-47.72A47.76,47.76,0,0,1,246,284.28Zm0-91.61a43.9,43.9,0,1,0,43.88,43.89A43.94,43.94,0,0,0,246,192.67Z"/><path class="cls-3" d="M246,269.87a33.31,33.31,0,1,1,33.3-33.31A33.33,33.33,0,0,1,246,269.87Zm0-62.8a29.5,29.5,0,1,0,29.48,29.49A29.52,29.52,0,0,0,246,207.07Z"/><path class="cls-3" d="M246,255.9a19.34,19.34,0,1,1,19.33-19.34A19.35,19.35,0,0,1,246,255.9ZM246,221a15.53,15.53,0,1,0,15.52,15.52A15.53,15.53,0,0,0,246,221Z"/><rect class="cls-3" x="152.96" width="148.91" height="148.98"/><ellipse class="cls-4" cx="251.63" cy="45.21" rx="17.55" ry="17.55"/><path class="cls-4" d="M203.78,120.75a19.68,19.68,0,1,1,19.67-19.68A19.7,19.7,0,0,1,203.78,120.75Zm0-35.11a15.43,15.43,0,1,0,15.42,15.43A15.44,15.44,0,0,0,203.78,85.64Z"/></svg>