<svg id="Layer_1" data-name="Layer 1" xmlns="http://www.w3.org/2000/svg" viewBox="0 0 1113.55 418.13"><defs><style>.cls-1{fill:#ebeaeb;}.cls-2,.cls-3{fill:none;stroke-miterlimit:10;}.cls-2{stroke:#0058a2;}.cls-3{stroke:#f7b11d;}.cls-4{fill:#00adcf;}.cls-5{fill:#2a2828;}.cls-6{fill:#b1752a;}.cls-7{fill:#fefefe;}.cls-8{fill:#f7b11d;}.cls-9{fill:#f39bc2;}.cls-10{fill:#fff9f4;}.cls-11{fill:#fff;}.cls-12{fill:#f15d22;}</style></defs><rect class="cls-1" width="1113.55" height="418.13"/><rect class="cls-2" x="1016.75" y="71.28" width="52.11" height="50.9"/><path class="cls-3" d="M1055.26,65.56a46.84,46.84,0,0,1-.36,5.72h-38.47v38.85a46.29,46.29,0,0,1-6.16.42,45,45,0,1,1,45-45Z"/><rect class="cls-4" x="25.23" y="299.89" width="144.01" height="118.24"/><rect class="cls-5" x="25.23" y="299.89" width="144.01" height="18.47"/><rect class="cls-6" x="150.78" y="299.89" width="18.47" height="18.47"/><circle class="cls-7" cx="33.65" cy="309.13" r="3.45"/><circle class="cls-8" cx="42.73" cy="309.13" r="3.45"/><circle class="cls-9" cx="52.62" cy="309.13" r="3.45"/><polygon class="cls-10" points="37.59 374.12 73.75 392.75 73.75 383.58 48.77 371.06 73.75 358.53 73.75 349.36 37.59 368 37.59 374.12"/><polygon class="cls-10" points="83.5 398.16 92.3 398.16 113.29 343.81 104.41 343.81 83.5 398.16"/><polygon class="cls-10" points="119.5 349.37 119.5 358.54 144.67 371.06 119.5 383.58 119.5 392.74 155.67 374.19 155.67 367.93 119.5 349.37"/><path class="cls-11" d="M984.73,170.73a5.39,5.39,0,1,1,5.38-5.39A5.39,5.39,0,0,1,984.73,170.73Zm0-9.4a4,4,0,1,0,4,4A4,4,0,0,0,984.73,161.33Z"/><path class="cls-11" d="M1006.13,170.73a5.39,5.39,0,1,1,5.38-5.39A5.39,5.39,0,0,1,1006.13,170.73Zm0-9.4a4,4,0,1,0,4,4A4,4,0,0,0,1006.13,161.33Z"/><path class="cls-11" d="M1027.52,170.73a5.39,5.39,0,1,1,5.38-5.39A5.4,5.4,0,0,1,1027.52,170.73Zm0-9.4a4,4,0,1,0,4,4A4,4,0,0,0,1027.52,161.33Z"/><path class="cls-11" d="M1048.92,170.73a5.39,5.39,0,1,1,5.38-5.39A5.39,5.39,0,0,1,1048.92,170.73Zm0-9.4a4,4,0,1,0,4,4A4,4,0,0,0,1048.92,161.33Z"/><path class="cls-11" d="M984.47,191.87a5.39,5.39,0,1,1,5.38-5.38A5.38,5.38,0,0,1,984.47,191.87Zm0-9.4a4,4,0,1,0,4,4A4,4,0,0,0,984.47,182.47Z"/><path class="cls-11" d="M1005.87,191.87a5.39,5.39,0,1,1,5.38-5.38A5.38,5.38,0,0,1,1005.87,191.87Zm0-9.4a4,4,0,1,0,4,4A4,4,0,0,0,1005.87,182.47Z"/><path class="cls-11" d="M1027.26,191.87a5.39,5.39,0,1,1,5.38-5.38A5.39,5.39,0,0,1,1027.26,191.87Zm0-9.4a4,4,0,1,0,4,4A4,4,0,0,0,1027.26,182.47Z"/><path class="cls-11" d="M1048.66,191.87a5.39,5.39,0,1,1,5.38-5.38A5.38,5.38,0,0,1,1048.66,191.87Zm0-9.4a4,4,0,1,0,4,4A4,4,0,0,0,1048.66,182.47Z"/><path class="cls-11" d="M984.21,213a5.38,5.38,0,1,1,5.38-5.38A5.38,5.38,0,0,1,984.21,213Zm0-9.39a4,4,0,1,0,4,4A4,4,0,0,0,984.21,203.62Z"/><path class="cls-11" d="M1005.61,213a5.38,5.38,0,1,1,5.38-5.38A5.39,5.39,0,0,1,1005.61,213Zm0-9.39a4,4,0,1,0,4,4A4,4,0,0,0,1005.61,203.62Z"/><path class="cls-11" d="M1027,213a5.38,5.38,0,1,1,5.38-5.38A5.39,5.39,0,0,1,1027,213Zm0-9.39a4,4,0,1,0,4,4A4,4,0,0,0,1027,203.62Z"/><path class="cls-11" d="M1048.4,213a5.38,5.38,0,1,1,5.38-5.38A5.38,5.38,0,0,1,1048.4,213Zm0-9.39a4,4,0,1,0,4,4A4,4,0,0,0,1048.4,203.62Z"/><path class="cls-11" d="M984,234.16a5.39,5.39,0,1,1,5.38-5.39A5.39,5.39,0,0,1,984,234.16Zm0-9.4a4,4,0,1,0,4,4A4,4,0,0,0,984,224.76Z"/><path class="cls-11" d="M1005.35,234.16a5.39,5.39,0,1,1,5.38-5.39A5.4,5.4,0,0,1,1005.35,234.16Zm0-9.4a4,4,0,1,0,4,4A4,4,0,0,0,1005.35,224.76Z"/><path class="cls-11" d="M1026.74,234.16a5.39,5.39,0,1,1,5.38-5.39A5.39,5.39,0,0,1,1026.74,234.16Zm0-9.4a4,4,0,1,0,4,4A4,4,0,0,0,1026.74,224.76Z"/><path class="cls-11" d="M1048.14,234.16a5.39,5.39,0,1,1,5.38-5.39A5.39,5.39,0,0,1,1048.14,234.16Zm0-9.4a4,4,0,1,0,4,4A4,4,0,0,0,1048.14,224.76Z"/><rect class="cls-4" x="25.06" y="224.43" width="37.66" height="7.79"/><rect class="cls-7" x="41.51" y="243.05" width="37.66" height="7.79"/><rect class="cls-4" x="78.74" y="262.97" width="37.66" height="7.79"/><rect class="cls-4" x="31.56" y="262.97" width="8.66" height="8.66"/><rect class="cls-4" x="49.74" y="262.97" width="8.66" height="8.66"/><rect class="cls-4" x="31.56" y="280.72" width="8.66" height="8.66"/><rect class="cls-7" x="49.74" y="280.72" width="8.66" height="8.66"/><path class="cls-11" d="M78.2,289.71H68.89V280.4H78.2Zm-8.66-.65h8v-8h-8Z"/><rect class="cls-7" x="87.39" y="243.05" width="8.66" height="8.66"/><rect class="cls-7" x="71.38" y="224.43" width="8.66" height="8.66"/><rect class="cls-4" x="86.1" y="224.43" width="8.66" height="8.66"/><path class="cls-10" d="M79.41,107.31a1.55,1.55,0,0,1-1.55-1.54V21.89a1.55,1.55,0,0,1,3.1,0v83.88A1.54,1.54,0,0,1,79.41,107.31Z"/><path class="cls-10" d="M121.33,65.38H37.49a1.55,1.55,0,0,1,0-3.1h83.84a1.55,1.55,0,0,1,0,3.1Z"/><path class="cls-10" d="M49.77,95a1.55,1.55,0,0,1-1.09-2.64L108,33.08l2.19,2.19L50.86,94.58A1.55,1.55,0,0,1,49.77,95Z"/><path class="cls-10" d="M108,94.58,48.68,35.27a1.55,1.55,0,1,1,2.18-2.19l59.29,59.31Z"/><path class="cls-8" d="M65.86,194.2a32.82,32.82,0,1,1,32.8-32.81A32.84,32.84,0,0,1,65.86,194.2Zm0-63A30.19,30.19,0,1,0,96,161.39,30.22,30.22,0,0,0,65.86,131.2Z"/><path class="cls-8" d="M65.86,184.3a22.91,22.91,0,1,1,22.9-22.91A22.93,22.93,0,0,1,65.86,184.3Zm0-43.2a20.29,20.29,0,1,0,20.28,20.29A20.3,20.3,0,0,0,65.86,141.1Z"/><path class="cls-8" d="M65.86,174.69a13.3,13.3,0,1,1,13.3-13.3A13.31,13.31,0,0,1,65.86,174.69Zm0-24a10.68,10.68,0,1,0,10.67,10.68A10.69,10.69,0,0,0,65.86,150.71Z"/><path class="cls-8" d="M130.15,194.2A32.82,32.82,0,1,1,163,161.39,32.85,32.85,0,0,1,130.15,194.2Zm0-63a30.19,30.19,0,1,0,30.18,30.19A30.22,30.22,0,0,0,130.15,131.2Z"/><path class="cls-8" d="M130.15,184.3a22.91,22.91,0,1,1,22.9-22.91A22.94,22.94,0,0,1,130.15,184.3Zm0-43.2a20.29,20.29,0,1,0,20.28,20.29A20.3,20.3,0,0,0,130.15,141.1Z"/><path class="cls-8" d="M130.15,174.69a13.3,13.3,0,1,1,13.3-13.3A13.31,13.31,0,0,1,130.15,174.69Zm0-24a10.68,10.68,0,1,0,10.67,10.68A10.69,10.69,0,0,0,130.15,150.71Z"/><path class="cls-8" d="M1016.42,301.75V257.88a22.45,22.45,0,0,1,0-2.32,4,4,0,0,1,7.83.07c.06.67,0,1.35,0,2V346c0,.59,0,1.17,0,1.75-.15,2.37-1.58,3.89-3.82,3.88a3.77,3.77,0,0,1-4.05-4c0-.68,0-1.36,0-2Z"/><path class="cls-6" d="M998.48,347.1q0-17.87,0-35.72c0-1.13-.27-2.35.51-3.36,1-1.27,2.15-2.28,3.9-2a4.16,4.16,0,0,1,3.69,3.56,15,15,0,0,1,0,2.32v70.56a6.83,6.83,0,0,1-.56,3.67,4.4,4.4,0,0,1-4.42,2.14,4.06,4.06,0,0,1-3.14-3.69c-.07-.86,0-1.74,0-2.61Z"/><path class="cls-7" d="M980.48,287.78q0-14.8,0-29.63c0-.77,0-1.55,0-2.32a4,4,0,0,1,4-3.79,4.09,4.09,0,0,1,4.14,3.68,14.6,14.6,0,0,1,0,1.75v60.71c0,.29,0,.58,0,.87-.08,2.78-1.73,4.54-4.2,4.5s-4-1.7-4-4.39c0-7.75,0-15.5,0-23.24Z"/><path class="cls-4" d="M980.54,369.75c0-10.35.07-20.7,0-31.05,0-2.76,1.73-4.74,4.72-4.41a3.67,3.67,0,0,1,3.44,3.3,12.61,12.61,0,0,1,0,1.74q0,30.46,0,60.93c0,2-.28,3.93-2.34,4.86a4,4,0,0,1-5.79-3.17,15.26,15.26,0,0,1,0-2Q980.54,384.83,980.54,369.75Z"/><path class="cls-5" d="M998.26,273.88c0-5.23,0-10.45,0-15.67a14.44,14.44,0,0,1,.23-2.87,3.93,3.93,0,0,1,4.14-3.27,4.13,4.13,0,0,1,3.89,3.31,11.83,11.83,0,0,1,.08,2.31v32.2a12.37,12.37,0,0,1,0,2,4.13,4.13,0,0,1-4,3.49,3.83,3.83,0,0,1-4.1-3.27,11.65,11.65,0,0,1-.2-2.88Q998.26,281.56,998.26,273.88Z"/><path class="cls-12" d="M1034.1,312.77c0-5.32,0-10.64,0-16,0-1.87.52-3.42,2.26-4.35a3.93,3.93,0,0,1,5.71,2.14,11.47,11.47,0,0,1,.49,3.71q0,14.81,0,29.6a11.91,11.91,0,0,1-.37,3.15,4,4,0,0,1-3.94,3.2,4.29,4.29,0,0,1-4.07-3.5,12.78,12.78,0,0,1-.07-2.32Z"/><path class="cls-5" d="M1024.35,383.69v15.94c0,.58,0,1.16,0,1.74-.12,2.46-1.67,4.2-3.82,4.28a4,4,0,0,1-4.14-4.24q-.07-17.54,0-35.07c0-2.7,1.61-4.22,4.1-4.15s3.83,1.53,3.85,4.1C1024.39,372.09,1024.35,377.89,1024.35,383.69Z"/><path class="cls-4" d="M1042.17,266.58c0,3.47,0,6.95,0,10.43,0,2.76-1.26,4.23-3.55,4.38a4.28,4.28,0,0,1-4.54-4.23c-.09-6.86-.07-13.73,0-20.59,0-1.83,1.57-4,3-4.18,1.62-.23,3.25-.28,4.45,1.31a3.65,3.65,0,0,1,.65,2.44Z"/><path class="cls-7" d="M1034.1,355.33c0-2,0-4.06,0-6.1.06-2.6,1.67-4.39,3.94-4.48a3.92,3.92,0,0,1,4.33,4.06c.16,4.35.16,8.72,0,13.07A4,4,0,0,1,1038,366c-2.29-.12-3.85-1.88-3.92-4.54C1034.05,359.4,1034.1,357.37,1034.1,355.33Z"/></svg>