<svg id="Layer_1" data-name="Layer 1" xmlns="http://www.w3.org/2000/svg" viewBox="0 0 301.87 302.68"><defs><style>.cls-1{fill:#2a2828;}.cls-2{fill:#fff;}.cls-3{fill:#f15d22;}.cls-4{fill:#fefefe;}.cls-5{fill:#f7b11d;}.cls-6{fill:#b1752a;}.cls-7{fill:#00adcf;}.cls-8{fill:#0058a2;}</style></defs><rect class="cls-1" width="301.87" height="302.68"/><path class="cls-2" d="M180.8,206.81a6.58,6.58,0,1,1,6.57-6.58A6.58,6.58,0,0,1,180.8,206.81Zm0-11.48a4.9,4.9,0,1,0,4.9,4.9A4.91,4.91,0,0,0,180.8,195.33Z"/><path class="cls-2" d="M206.93,206.81a6.58,6.58,0,1,1,6.57-6.58A6.58,6.58,0,0,1,206.93,206.81Zm0-11.48a4.9,4.9,0,1,0,4.9,4.9A4.91,4.91,0,0,0,206.93,195.33Z"/><path class="cls-2" d="M233.06,206.81a6.58,6.58,0,1,1,6.57-6.58A6.58,6.58,0,0,1,233.06,206.81Zm0-11.48a4.9,4.9,0,1,0,4.9,4.9A4.91,4.91,0,0,0,233.06,195.33Z"/><path class="cls-2" d="M259.19,206.81a6.58,6.58,0,1,1,6.58-6.58A6.58,6.58,0,0,1,259.19,206.81Zm0-11.48a4.9,4.9,0,1,0,4.9,4.9A4.91,4.91,0,0,0,259.19,195.33Z"/><path class="cls-2" d="M180.48,232.63a6.58,6.58,0,1,1,6.57-6.57A6.58,6.58,0,0,1,180.48,232.63Zm0-11.48a4.91,4.91,0,1,0,4.9,4.91A4.91,4.91,0,0,0,180.48,221.15Z"/><path class="cls-2" d="M206.61,232.63a6.58,6.58,0,1,1,6.57-6.57A6.58,6.58,0,0,1,206.61,232.63Zm0-11.48a4.91,4.91,0,1,0,4.9,4.91A4.91,4.91,0,0,0,206.61,221.15Z"/><path class="cls-2" d="M232.74,232.63a6.58,6.58,0,1,1,6.57-6.57A6.58,6.58,0,0,1,232.74,232.63Zm0-11.48a4.91,4.91,0,1,0,4.9,4.91A4.91,4.91,0,0,0,232.74,221.15Z"/><path class="cls-2" d="M258.87,232.63a6.58,6.58,0,1,1,6.58-6.57A6.58,6.58,0,0,1,258.87,232.63Zm0-11.48a4.91,4.91,0,1,0,4.91,4.91A4.91,4.91,0,0,0,258.87,221.15Z"/><path class="cls-2" d="M180.16,258.45a6.58,6.58,0,1,1,6.57-6.57A6.58,6.58,0,0,1,180.16,258.45Zm0-11.48a4.91,4.91,0,1,0,4.9,4.91A4.92,4.92,0,0,0,180.16,247Z"/><path class="cls-2" d="M206.29,258.45a6.58,6.58,0,1,1,6.58-6.57A6.58,6.58,0,0,1,206.29,258.45Zm0-11.48a4.91,4.91,0,1,0,4.9,4.91A4.92,4.92,0,0,0,206.29,247Z"/><path class="cls-2" d="M232.43,258.45a6.58,6.58,0,1,1,6.57-6.57A6.58,6.58,0,0,1,232.43,258.45Zm0-11.48a4.91,4.91,0,1,0,4.89,4.91A4.91,4.91,0,0,0,232.43,247Z"/><path class="cls-2" d="M258.56,258.45a6.58,6.58,0,1,1,6.57-6.57A6.58,6.58,0,0,1,258.56,258.45Zm0-11.48a4.91,4.91,0,1,0,4.9,4.91A4.91,4.91,0,0,0,258.56,247Z"/><path class="cls-2" d="M179.84,284.28a6.58,6.58,0,1,1,6.58-6.58A6.58,6.58,0,0,1,179.84,284.28Zm0-11.48a4.91,4.91,0,1,0,4.9,4.9A4.91,4.91,0,0,0,179.84,272.8Z"/><path class="cls-2" d="M206,284.28a6.58,6.58,0,1,1,6.57-6.58A6.59,6.59,0,0,1,206,284.28Zm0-11.48a4.91,4.91,0,1,0,4.9,4.9A4.91,4.91,0,0,0,206,272.8Z"/><path class="cls-2" d="M232.11,284.28a6.58,6.58,0,1,1,6.57-6.58A6.58,6.58,0,0,1,232.11,284.28Zm0-11.48a4.91,4.91,0,1,0,4.9,4.9A4.9,4.9,0,0,0,232.11,272.8Z"/><path class="cls-2" d="M258.24,284.28a6.58,6.58,0,1,1,6.57-6.58A6.58,6.58,0,0,1,258.24,284.28Zm0-11.48a4.91,4.91,0,1,0,4.9,4.9A4.91,4.91,0,0,0,258.24,272.8Z"/><rect class="cls-3" x="0.23" y="179.43" width="123.2" height="123.25"/><rect class="cls-1" y="201.79" width="50.35" height="10.42"/><rect class="cls-4" x="21.99" y="226.68" width="50.35" height="10.42"/><rect class="cls-1" x="71.76" y="253.31" width="50.35" height="10.42"/><rect class="cls-1" x="8.68" y="253.31" width="11.57" height="11.58"/><rect class="cls-1" x="32.99" y="253.31" width="11.57" height="11.58"/><rect class="cls-1" x="8.68" y="277.05" width="11.57" height="11.58"/><rect class="cls-4" x="32.99" y="277.05" width="11.57" height="11.58"/><path class="cls-2" d="M71,289.06H58.59V276.62H71Zm-11.58-.86H70.17V277.49H59.46Z"/><rect class="cls-4" x="83.33" y="226.68" width="11.57" height="11.58"/><rect class="cls-4" x="61.92" y="201.79" width="11.57" height="11.58"/><rect class="cls-1" x="81.6" y="201.79" width="11.57" height="11.58"/><path class="cls-5" d="M107.19,84.26H34.77c-1.28,0-2.57.07-3.83-.06-3.49-.36-5.62-2.89-5.59-6.51s2.17-6.07,5.7-6.41c1.11-.11,2.24,0,3.36,0H180.22c.95,0,1.92,0,2.87,0,3.93.25,6.44,2.62,6.42,6.31,0,3.37-2.12,6.83-6.53,6.7-1.12,0-2.24,0-3.36,0Z"/><path class="cls-6" d="M182.07,113.87q-29.49,0-59,0c-1.87,0-3.89.45-5.56-.84-2.08-1.63-3.76-3.55-3.34-6.44a6.91,6.91,0,0,1,5.88-6.1,25.71,25.71,0,0,1,3.83-.07H240.4c2.07,0,4.15-.21,6.06.92a7.23,7.23,0,0,1,3.54,7.29,6.7,6.7,0,0,1-6.09,5.19c-1.43.12-2.88.07-4.31.07Z"/><path class="cls-4" d="M84.14,143.6H35.21c-1.27,0-2.56.05-3.83-.07a6.61,6.61,0,0,1-6.26-6.61,6.76,6.76,0,0,1,6.09-6.84,22.87,22.87,0,0,1,2.87,0H134.33c.48,0,1,0,1.44,0,4.59.14,7.49,2.86,7.42,6.93s-2.8,6.56-7.25,6.59c-12.79.08-25.58,0-38.37,0Z"/><path class="cls-7" d="M219.46,143.48c-17.08,0-34.17-.11-51.25.07-4.56,0-7.83-2.85-7.29-7.78a6.06,6.06,0,0,1,5.46-5.68,19.6,19.6,0,0,1,2.87,0q50.3,0,100.59,0c3.38,0,6.49.45,8,3.86,2.3,5.11-1.45,9-5.24,9.56a24.93,24.93,0,0,1-3.35,0Z"/><path class="cls-8" d="M61.17,114.23c-8.62,0-17.24,0-25.86,0a24.21,24.21,0,0,1-4.74-.4,6.47,6.47,0,0,1-5.4-6.83,6.84,6.84,0,0,1,5.46-6.42,19.43,19.43,0,0,1,3.82-.13H87.61a20.76,20.76,0,0,1,3.35.07,6.82,6.82,0,0,1,5.76,6.62c.06,3.62-1.79,5.87-5.41,6.77a19,19,0,0,1-4.75.33Z"/><path class="cls-3" d="M125.4,55.06c-8.79,0-17.57,0-26.35,0-3.1,0-5.66-.86-7.2-3.74a6.5,6.5,0,0,1,3.54-9.42,18.43,18.43,0,0,1,6.13-.81q24.44.06,48.87,0a19.33,19.33,0,0,1,5.2.61c3.31.91,5.32,3.41,5.28,6.51A7.07,7.07,0,0,1,155.09,55a21.08,21.08,0,0,1-3.82.11Z"/><path class="cls-8" d="M242.48,71.15H268.8c1,0,1.92,0,2.87,0,4.08.2,6.94,2.76,7.08,6.31.14,3.73-2.81,6.82-7,6.83q-29,.12-57.91,0c-4.46,0-7-2.66-6.86-6.77.11-3.89,2.53-6.32,6.79-6.36C223.34,71.09,232.91,71.15,242.48,71.15Z"/><path class="cls-7" d="M49.12,41.74c5.75,0,11.49,0,17.24,0,4.55,0,7,2.07,7.23,5.86a7.1,7.1,0,0,1-7,7.51c-11.32.14-22.65.1-34,0-3,0-6.58-2.6-6.91-5-.37-2.68-.45-5.37,2.17-7.36a6,6,0,0,1,4-1.06Z"/><path class="cls-4" d="M195.67,55.06c-3.36,0-6.72.07-10.07,0-4.31-.11-7.25-2.76-7.4-6.52-.16-4,2.26-7,6.7-7.14,7.18-.27,14.39-.26,21.57,0a6.65,6.65,0,0,1,6.76,7.13c-.2,3.78-3.11,6.36-7.49,6.48C202.39,55.14,199,55.06,195.67,55.06Z"/></svg>