<?xml version="1.0" encoding="utf-8"?>
<!-- Generator: Adobe Illustrator 25.0.0, SVG Export Plug-In . SVG Version: 6.00 Build 0)  -->
<svg version="1.1" id="Layer_1" xmlns="http://www.w3.org/2000/svg" xmlns:xlink="http://www.w3.org/1999/xlink" x="0px" y="0px"
	 viewBox="0 0 1113.6 418.1" style="enable-background:new 0 0 1113.6 418.1;" xml:space="preserve">
<style type="text/css">
	.st0{fill:#1A1C29;}
	.st1{fill:none;stroke:#0058A2;stroke-miterlimit:10;}
	.st2{fill:none;stroke:#F7B11D;stroke-miterlimit:10;}
	.st3{fill:#00ADCF;}
	.st4{fill:#B1752A;}
	.st5{fill:#FEFEFE;}
	.st6{fill:#F7B11D;}
	.st7{fill:#F39BC2;}
	.st8{fill:#FFF9F4;}
	.st9{fill:#FFFFFF;}
	.st10{fill:#2A2828;}
	.st11{fill:#F15D22;}
</style>
<rect class="st0" width="1113.6" height="418.1"/>
<rect x="1016.8" y="71.3" class="st1" width="52.1" height="50.9"/>
<path class="st2" d="M1055.3,65.6c0,1.9-0.1,3.8-0.4,5.7h-38.5v38.8c-2,0.3-4.1,0.4-6.2,0.4c-24.9,0-45-20.1-45-45s20.1-45,45-45
	S1055.3,40.7,1055.3,65.6C1055.3,65.5,1055.3,65.5,1055.3,65.6L1055.3,65.6z"/>
<rect x="25.2" y="299.9" class="st3" width="144" height="118.2"/>
<rect x="25.2" y="299.9" class="st0" width="144" height="18.5"/>
<rect x="150.8" y="299.9" class="st4" width="18.5" height="18.5"/>
<circle class="st5" cx="33.7" cy="309.1" r="3.5"/>
<circle class="st6" cx="42.7" cy="309.1" r="3.5"/>
<circle class="st7" cx="52.6" cy="309.1" r="3.5"/>
<polygon class="st8" points="37.6,374.1 73.8,392.8 73.8,383.6 48.8,371.1 73.8,358.5 73.8,349.4 37.6,368 "/>
<polygon class="st8" points="83.5,398.2 92.3,398.2 113.3,343.8 104.4,343.8 "/>
<polygon class="st8" points="119.5,349.4 119.5,358.5 144.7,371.1 119.5,383.6 119.5,392.7 155.7,374.2 155.7,367.9 "/>
<path class="st9" d="M984.7,170.7c-3,0-5.4-2.4-5.4-5.4c0-3,2.4-5.4,5.4-5.4c3,0,5.4,2.4,5.4,5.4c0,0,0,0,0,0
	C990.1,168.3,987.7,170.7,984.7,170.7z M984.7,161.3c-2.2,0-4,1.8-4,4s1.8,4,4,4s4-1.8,4-4S986.9,161.3,984.7,161.3z"/>
<path class="st9" d="M1006.1,170.7c-3,0-5.4-2.4-5.4-5.4c0-3,2.4-5.4,5.4-5.4c3,0,5.4,2.4,5.4,5.4c0,0,0,0,0,0
	C1011.5,168.3,1009.1,170.7,1006.1,170.7z M1006.1,161.3c-2.2,0-4,1.8-4,4s1.8,4,4,4s4-1.8,4-4S1008.3,161.3,1006.1,161.3z"/>
<path class="st9" d="M1027.5,170.7c-3,0-5.4-2.4-5.4-5.4c0-3,2.4-5.4,5.4-5.4s5.4,2.4,5.4,5.4c0,0,0,0,0,0
	C1032.9,168.3,1030.5,170.7,1027.5,170.7z M1027.5,161.3c-2.2,0-4,1.8-4,4s1.8,4,4,4s4-1.8,4-4S1029.7,161.3,1027.5,161.3z"/>
<path class="st9" d="M1048.9,170.7c-3,0-5.4-2.4-5.4-5.4c0-3,2.4-5.4,5.4-5.4s5.4,2.4,5.4,5.4c0,0,0,0,0,0
	C1054.3,168.3,1051.9,170.7,1048.9,170.7z M1048.9,161.3c-2.2,0-4,1.8-4,4s1.8,4,4,4s4-1.8,4-4S1051.1,161.3,1048.9,161.3z"/>
<path class="st9" d="M984.5,191.9c-3,0-5.4-2.4-5.4-5.4c0-3,2.4-5.4,5.4-5.4c3,0,5.4,2.4,5.4,5.4c0,0,0,0,0,0
	C989.8,189.5,987.4,191.9,984.5,191.9L984.5,191.9z M984.5,182.5c-2.2,0-4,1.8-4,4s1.8,4,4,4s4-1.8,4-4S986.7,182.5,984.5,182.5z"/>
<path class="st9" d="M1005.9,191.9c-3,0-5.4-2.4-5.4-5.4c0-3,2.4-5.4,5.4-5.4c3,0,5.4,2.4,5.4,5.4c0,0,0,0,0,0
	C1011.2,189.5,1008.8,191.9,1005.9,191.9L1005.9,191.9z M1005.9,182.5c-2.2,0-4,1.8-4,4s1.8,4,4,4s4-1.8,4-4
	S1008.1,182.5,1005.9,182.5z"/>
<path class="st9" d="M1027.3,191.9c-3,0-5.4-2.4-5.4-5.4c0-3,2.4-5.4,5.4-5.4c3,0,5.4,2.4,5.4,5.4c0,0,0,0,0,0
	C1032.6,189.5,1030.2,191.9,1027.3,191.9z M1027.3,182.5c-2.2,0-4,1.8-4,4s1.8,4,4,4s4-1.8,4-4S1029.5,182.5,1027.3,182.5z"/>
<path class="st9" d="M1048.7,191.9c-3,0-5.4-2.4-5.4-5.4c0-3,2.4-5.4,5.4-5.4c3,0,5.4,2.4,5.4,5.4c0,0,0,0,0,0
	C1054,189.5,1051.6,191.9,1048.7,191.9L1048.7,191.9z M1048.7,182.5c-2.2,0-4,1.8-4,4s1.8,4,4,4s4-1.8,4-4
	S1050.9,182.5,1048.7,182.5z"/>
<path class="st9" d="M984.2,213c-3,0-5.4-2.4-5.4-5.4s2.4-5.4,5.4-5.4c3,0,5.4,2.4,5.4,5.4C989.6,210.6,987.2,213,984.2,213
	L984.2,213z M984.2,203.6c-2.2,0-4,1.8-4,4s1.8,4,4,4s4-1.8,4-4C988.2,205.4,986.4,203.6,984.2,203.6L984.2,203.6z"/>
<path class="st9" d="M1005.6,213c-3,0-5.4-2.4-5.4-5.4s2.4-5.4,5.4-5.4c3,0,5.4,2.4,5.4,5.4C1011,210.6,1008.6,213,1005.6,213z
	 M1005.6,203.6c-2.2,0-4,1.8-4,4s1.8,4,4,4s4-1.8,4-4C1009.6,205.4,1007.8,203.6,1005.6,203.6L1005.6,203.6z"/>
<path class="st9" d="M1027,213c-3,0-5.4-2.4-5.4-5.4s2.4-5.4,5.4-5.4c3,0,5.4,2.4,5.4,5.4C1032.4,210.6,1030,213,1027,213z
	 M1027,203.6c-2.2,0-4,1.8-4,4s1.8,4,4,4s4-1.8,4-4C1031,205.4,1029.2,203.6,1027,203.6L1027,203.6z"/>
<path class="st9" d="M1048.4,213c-3,0-5.4-2.4-5.4-5.4s2.4-5.4,5.4-5.4c3,0,5.4,2.4,5.4,5.4C1053.8,210.6,1051.4,213,1048.4,213
	L1048.4,213z M1048.4,203.6c-2.2,0-4,1.8-4,4s1.8,4,4,4s4-1.8,4-4C1052.4,205.4,1050.6,203.6,1048.4,203.6L1048.4,203.6z"/>
<path class="st9" d="M984,234.2c-3,0-5.4-2.4-5.4-5.4c0-3,2.4-5.4,5.4-5.4c3,0,5.4,2.4,5.4,5.4c0,0,0,0,0,0
	C989.4,231.7,987,234.2,984,234.2z M984,224.8c-2.2,0-4,1.8-4,4s1.8,4,4,4s4-1.8,4-4S986.2,224.8,984,224.8L984,224.8L984,224.8z"/>
<path class="st9" d="M1005.3,234.2c-3,0-5.4-2.4-5.4-5.4c0-3,2.4-5.4,5.4-5.4c3,0,5.4,2.4,5.4,5.4c0,0,0,0,0,0
	C1010.7,231.7,1008.3,234.1,1005.3,234.2z M1005.3,224.8c-2.2,0-4,1.8-4,4s1.8,4,4,4s4-1.8,4-4S1007.6,224.8,1005.3,224.8
	L1005.3,224.8L1005.3,224.8z"/>
<path class="st9" d="M1026.7,234.2c-3,0-5.4-2.4-5.4-5.4c0-3,2.4-5.4,5.4-5.4s5.4,2.4,5.4,5.4c0,0,0,0,0,0
	C1032.1,231.7,1029.7,234.2,1026.7,234.2z M1026.7,224.8c-2.2,0-4,1.8-4,4s1.8,4,4,4s4-1.8,4-4S1028.9,224.8,1026.7,224.8
	L1026.7,224.8L1026.7,224.8z"/>
<path class="st9" d="M1048.1,234.2c-3,0-5.4-2.4-5.4-5.4c0-3,2.4-5.4,5.4-5.4s5.4,2.4,5.4,5.4c0,0,0,0,0,0
	C1053.5,231.7,1051.1,234.2,1048.1,234.2z M1048.1,224.8c-2.2,0-4,1.8-4,4s1.8,4,4,4s4-1.8,4-4S1050.3,224.8,1048.1,224.8
	L1048.1,224.8L1048.1,224.8z"/>
<rect x="25.1" y="224.4" class="st3" width="37.7" height="7.8"/>
<rect x="41.5" y="243.1" class="st5" width="37.7" height="7.8"/>
<rect x="78.7" y="263" class="st3" width="37.7" height="7.8"/>
<rect x="31.6" y="263" class="st3" width="8.7" height="8.7"/>
<rect x="49.7" y="263" class="st3" width="8.7" height="8.7"/>
<rect x="31.6" y="280.7" class="st3" width="8.7" height="8.7"/>
<rect x="49.7" y="280.7" class="st5" width="8.7" height="8.7"/>
<path class="st9" d="M78.2,289.7h-9.3v-9.3h9.3V289.7z M69.5,289.1h8v-8h-8V289.1z"/>
<rect x="87.4" y="243.1" class="st5" width="8.7" height="8.7"/>
<rect x="71.4" y="224.4" class="st5" width="8.7" height="8.7"/>
<rect x="86.1" y="224.4" class="st3" width="8.7" height="8.7"/>
<path class="st8" d="M79.4,107.3c-0.9,0-1.5-0.7-1.6-1.5V21.9c0-0.9,0.7-1.5,1.6-1.5c0.9,0,1.5,0.7,1.5,1.5v83.9
	C81,106.6,80.3,107.3,79.4,107.3C79.4,107.3,79.4,107.3,79.4,107.3z"/>
<path class="st8" d="M121.3,65.4H37.5c-0.9,0-1.5-0.7-1.5-1.6c0-0.9,0.7-1.5,1.5-1.5h83.8c0.9,0,1.5,0.7,1.5,1.6
	C122.9,64.7,122.2,65.4,121.3,65.4z"/>
<path class="st8" d="M49.8,95c-0.9,0-1.5-0.7-1.5-1.6c0-0.4,0.2-0.8,0.4-1.1L108,33.1l2.2,2.2L50.9,94.6C50.6,94.9,50.2,95,49.8,95z
	"/>
<path class="st8" d="M108,94.6L48.7,35.3c-0.7-0.6-0.7-1.5-0.2-2.2c0.6-0.7,1.5-0.7,2.2-0.2c0.1,0.1,0.1,0.1,0.2,0.2l59.3,59.3
	L108,94.6z"/>
<path class="st6" d="M65.9,194.2c-18.1,0-32.8-14.7-32.8-32.8s14.7-32.8,32.8-32.8s32.8,14.7,32.8,32.8c0,0,0,0,0,0
	C98.6,179.5,84,194.2,65.9,194.2z M65.9,131.2c-16.7,0-30.2,13.5-30.2,30.1s13.5,30.2,30.1,30.2c16.7,0,30.2-13.5,30.2-30.1
	c0,0,0,0,0,0C96,144.7,82.5,131.2,65.9,131.2z"/>
<path class="st6" d="M65.9,184.3c-12.7,0-22.9-10.2-22.9-22.9c0-12.7,10.2-22.9,22.9-22.9s22.9,10.2,22.9,22.9c0,0,0,0,0,0
	C88.7,174,78.5,184.3,65.9,184.3z M65.9,141.1c-11.2,0-20.3,9.1-20.3,20.3c0,11.2,9.1,20.3,20.3,20.3s20.3-9.1,20.3-20.3
	c0,0,0,0,0,0C86.1,150.2,77.1,141.1,65.9,141.1z"/>
<path class="st6" d="M65.9,174.7c-7.3,0-13.3-6-13.3-13.3c0-7.3,6-13.3,13.3-13.3c7.3,0,13.3,6,13.3,13.3
	C79.2,168.7,73.2,174.7,65.9,174.7z M65.9,150.7c-5.9,0-10.7,4.8-10.7,10.7c0,5.9,4.8,10.7,10.7,10.7s10.7-4.8,10.7-10.7
	c0,0,0,0,0,0C76.5,155.5,71.7,150.7,65.9,150.7L65.9,150.7z"/>
<path class="st6" d="M130.1,194.2c-18.1,0-32.8-14.7-32.8-32.8s14.7-32.8,32.8-32.8c18.1,0,32.8,14.7,32.8,32.8
	C163,179.5,148.3,194.2,130.1,194.2z M130.1,131.2c-16.7,0-30.2,13.5-30.2,30.2c0,16.7,13.5,30.2,30.2,30.2
	c16.7,0,30.2-13.5,30.2-30.2c0,0,0,0,0,0C160.3,144.7,146.8,131.2,130.1,131.2z"/>
<path class="st6" d="M130.1,184.3c-12.7,0-22.9-10.2-22.9-22.9c0-12.7,10.2-22.9,22.9-22.9c12.7,0,22.9,10.2,22.9,22.9c0,0,0,0,0,0
	C153,174,142.8,184.3,130.1,184.3z M130.1,141.1c-11.2,0-20.3,9.1-20.3,20.3s9.1,20.3,20.3,20.3s20.3-9.1,20.3-20.3c0,0,0,0,0,0
	C150.4,150.2,141.3,141.1,130.1,141.1z"/>
<path class="st6" d="M130.1,174.7c-7.3,0-13.3-6-13.3-13.3s6-13.3,13.3-13.3c7.3,0,13.3,6,13.3,13.3
	C143.4,168.7,137.5,174.7,130.1,174.7z M130.1,150.7c-5.9,0-10.7,4.8-10.7,10.7c0,5.9,4.8,10.7,10.7,10.7c5.9,0,10.7-4.8,10.7-10.7
	c0,0,0,0,0,0C140.8,155.5,136,150.7,130.1,150.7L130.1,150.7z"/>
<path class="st6" d="M1016.4,301.8v-43.9c0-0.8,0-1.5,0-2.3c0.5-2.2,2.6-3.5,4.8-3.1c1.6,0.3,2.8,1.6,3.1,3.1c0.1,0.7,0,1.4,0,2V346
	c0,0.6,0,1.2,0,1.8c-0.2,2.4-1.6,3.9-3.8,3.9c-2.1,0.2-3.9-1.4-4-3.5c0-0.2,0-0.4,0-0.5c0-0.7,0-1.4,0-2L1016.4,301.8z"/>
<path class="st4" d="M998.5,347.1c0-11.9,0-23.8,0-35.7c0-1.1-0.3-2.4,0.5-3.4c1-1.3,2.2-2.3,3.9-2c1.9,0.2,3.4,1.7,3.7,3.6
	c0.1,0.8,0.1,1.5,0,2.3v70.6c0.2,1.3,0,2.5-0.6,3.7c-0.9,1.5-2.6,2.4-4.4,2.1c-1.7-0.4-3-1.9-3.1-3.7c-0.1-0.9,0-1.7,0-2.6
	L998.5,347.1z"/>
<path class="st5" d="M980.5,287.8c0-9.9,0-19.7,0-29.6c0-0.8,0-1.5,0-2.3c0.1-2.1,1.9-3.8,4-3.8c2.1,0,3.9,1.6,4.1,3.7
	c0,0.6,0,1.2,0,1.7v60.7c0,0.3,0,0.6,0,0.9c-0.1,2.8-1.7,4.5-4.2,4.5s-4-1.7-4-4.4c0-7.8,0-15.5,0-23.2L980.5,287.8z"/>
<path class="st3" d="M980.5,369.8c0-10.4,0.1-20.7,0-31c0-2.8,1.7-4.7,4.7-4.4c1.8,0.1,3.3,1.5,3.4,3.3c0,0.6,0,1.2,0,1.7
	c0,20.3,0,40.6,0,60.9c0,2-0.3,3.9-2.3,4.9c-2,1-4.4,0.2-5.4-1.8c-0.2-0.4-0.4-0.9-0.4-1.4c0-0.7,0-1.3,0-2
	C980.5,389.9,980.5,379.8,980.5,369.8z"/>
<path class="st10" d="M998.3,273.9c0-5.2,0-10.5,0-15.7c0-1,0.1-1.9,0.2-2.9c0.3-2,2.1-3.4,4.1-3.3c1.9,0.1,3.5,1.4,3.9,3.3
	c0.1,0.8,0.1,1.5,0.1,2.3v32.2c0.1,0.7,0.1,1.3,0,2c-0.3,2-2,3.5-4,3.5c-2,0.2-3.8-1.3-4.1-3.3c-0.2-0.9-0.3-1.9-0.2-2.9
	C998.3,284.1,998.3,279,998.3,273.9z"/>
<path class="st11" d="M1034.1,312.8c0-5.3,0-10.6,0-16c0-1.9,0.5-3.4,2.3-4.4c1.9-1.1,4.3-0.5,5.4,1.4c0.1,0.2,0.2,0.5,0.3,0.7
	c0.4,1.2,0.5,2.5,0.5,3.7c0,9.9,0,19.7,0,29.6c0,1.1-0.1,2.1-0.4,3.1c-0.4,1.9-2,3.2-3.9,3.2c-2-0.1-3.7-1.5-4.1-3.5
	c-0.1-0.8-0.1-1.5-0.1-2.3L1034.1,312.8z"/>
<path class="st10" d="M1024.3,383.7v15.9c0,0.6,0,1.2,0,1.7c-0.1,2.5-1.7,4.2-3.8,4.3c-2.2,0.1-4.1-1.6-4.1-3.8c0-0.1,0-0.3,0-0.4
	c0-11.7,0-23.4,0-35.1c0-2.7,1.6-4.2,4.1-4.1s3.8,1.5,3.9,4.1C1024.4,372.1,1024.3,377.9,1024.3,383.7z"/>
<path class="st3" d="M1042.2,266.6c0,3.5,0,7,0,10.4c0,2.8-1.3,4.2-3.6,4.4c-2.4,0.1-4.4-1.7-4.5-4c0-0.1,0-0.1,0-0.2
	c-0.1-6.9-0.1-13.7,0-20.6c0-1.8,1.6-4,3-4.2c1.6-0.2,3.2-0.3,4.4,1.3c0.5,0.7,0.7,1.6,0.7,2.4L1042.2,266.6z"/>
<path class="st5" d="M1034.1,355.3c0-2,0-4.1,0-6.1c0.1-2.6,1.7-4.4,3.9-4.5c2.2-0.2,4.1,1.3,4.3,3.5c0,0.2,0,0.4,0,0.6
	c0.2,4.4,0.2,8.7,0,13.1c0.1,2.2-1.7,4.1-3.9,4.1c-0.2,0-0.3,0-0.5,0c-2.3-0.1-3.8-1.9-3.9-4.5
	C1034.1,359.4,1034.1,357.4,1034.1,355.3z"/>
</svg>
