<svg id="Layer_1" data-name="Layer 1" xmlns="http://www.w3.org/2000/svg" viewBox="0 0 301.87 302.68"><defs><style>.cls-1{fill:#0058a2;}.cls-2{fill:#00adcf;}.cls-3{fill:#f7b11d;}.cls-4{fill:#eeedee;}.cls-5{fill:#f39bc2;}</style></defs><rect class="cls-1" width="301.87" height="302.68"/><path class="cls-2" d="M125.93,301.49H238.14a114.06,114.06,0,0,0-112.21-93.61Z"/><polygon class="cls-3" points="213.82 138.79 213.82 212.53 302.78 301.49 303.24 301.03 303.24 228.21 213.82 138.79"/><rect class="cls-4" x="173.46" y="137.62" width="2.2" height="145.04"/><rect class="cls-4" x="193.88" y="137.81" width="2.2" height="145.04"/><polygon class="cls-4" points="303.24 133.25 215.05 45.87 213.35 47.59 303.24 136.64 303.24 133.25"/><polygon class="cls-4" points="303.24 189.98 215.05 102.61 213.35 104.32 303.24 193.38 303.24 189.98"/><polygon class="cls-4" points="303.24 152.16 215.05 64.78 213.35 66.5 303.24 155.55 303.24 152.16"/><polygon class="cls-4" points="303.24 171.07 215.05 83.7 213.35 85.41 303.24 174.46 303.24 171.07"/><path class="cls-4" d="M192.25-1.14v27L59.57,301.49H16.88L149.11,33.79v-.94H0v-34Z"/><rect class="cls-5" x="50.06" y="88.34" width="46.39" height="45.31"/><path class="cls-3" d="M84.34,83.25A40.68,40.68,0,0,1,84,88.34H49.78v34.58A40.05,40.05,0,1,1,84.34,83.25Z"/><path class="cls-2" d="M84,88.34a40.08,40.08,0,0,1-34.24,34.58V88.34Z"/></svg>